<?xml version="1.0" encoding="utf-8"?>
<!-- Generator: Adobe Illustrator 23.0.1, SVG Export Plug-In . SVG Version: 6.00 Build 0)  -->
<svg version="1.1" id="Layer_1" xmlns="http://www.w3.org/2000/svg" xmlns:xlink="http://www.w3.org/1999/xlink" x="0px" y="0px"
	 viewBox="0 0 512 304" style="enable-background:new 0 0 512 304;" xml:space="preserve">
<style type="text/css">
	.st0{fill-rule:evenodd;clip-rule:evenodd;fill:#F6F6F8;}
	.st1{fill:#F6F6F8;}
</style>
<g id="Page-1_2_">
	<g id="Artboard-Copy-6_2_" transform="translate(-18.000000, -16.000000)">
		<g id="Group-7_2_" transform="translate(18.000000, 16.000000)">
			<path id="BETO_2_" class="st0" d="M128.6,12l15.9,16v67.3l-15.9,16l15.9,16v71.6l-15.9,16H69.7V12H128.6z M113.7,101.2l5.3-5.3
				V38.7l-5.3-5.3H95.1v67.8H113.7z M113.7,122.6H95.1v70.5h18.6l5.3-5.3v-59.8L113.7,122.6z M177.5,214.9V12h62.9v21.9H203v67.3
				h32.6v21.9H203v70h37.9v21.9H177.5z M338.6,33.4h-24.1v181.6H289V33.4h-24.1V12h73.7V33.4z M441.9,28v170.9l-15.9,16h-44.3
				l-15.9-16V28l15.9-16H426L441.9,28z M411.1,33.9h-14.6l-5.3,5.3v148.5l5.3,5.3h14.6l5.3-5.3V39.2L411.1,33.9z"/>
			<path id="for-senate_2_" class="st0" d="M146.6,239.7v5.6h-9.3V263h8.4v5.6h-8.4v22.7h-6.5v-51.5H146.6z M174,243.8v43.4l-4,4.1
				h-11.2l-4-4.1v-43.4l4-4.1h11.2L174,243.8z M166.2,245.3h-3.7l-1.3,1.4v37.7l1.3,1.4h3.7l1.3-1.4v-37.7L166.2,245.3z
				 M183.5,291.2v-51.5h15l4,4.1v21.4l-3.6,3.6l4,22.4h-6.3l-4-22h-2.8v22H183.5z M194.7,264l1.3-1.4v-16.1l-1.3-1.4h-4.7V264H194.7
				z M239.4,254.6v-8.1l-1.3-1.4h-2.4l-1.3,1.4V261l1.3,1.4h6.3l4,4.1v20.8l-4,4.1h-10.2l-4-4.1v-10.8h6.5v8.1l1.3,1.4h2.7l1.3-1.4
				v-15.2l-1.3-1.4h-6.3l-4-4.1v-20.1l4-4.1h9.9l4,4.1v10.9H239.4z M255.2,291.2v-51.5h16v5.6h-9.5v17.1h8.3v5.6h-8.3v17.8h9.6v5.6
				H255.2z M280,291.2v-51.5h7l7.4,35.7v-35.7h5.9v51.5h-7l-7.4-35.2v35.2H280z M322,278h-5.9l-1.3,13.3h-6.5l6.1-51.5h9.3l6.3,51.5
				h-6.7L322,278z M321.5,272.4l-2.5-26l-2.5,26H321.5z M351.9,245.1h-6.1v46.1h-6.5v-46.1h-6.1v-5.4h18.7V245.1z M359.9,291.2
				v-51.5h16v5.6h-9.5v17.1h8.3v5.6h-8.3v17.8h9.6v5.6H359.9z"/>
			<rect id="Rectangle-7_2_" x="69.7" y="240.4" class="st1" width="50.5" height="5"/>
			<rect x="69.7" y="263.7" class="st1" width="50.5" height="5"/>
			<rect x="69.7" y="287" class="st1" width="50.5" height="5"/>
			<rect x="391.8" y="240.4" class="st1" width="50.5" height="5"/>
			<rect x="391.8" y="263.7" class="st1" width="50.5" height="5"/>
			<rect x="391.8" y="287" class="st1" width="50.5" height="5"/>
		</g>
	</g>
</g>
</svg>
