<?xml version="1.0" encoding="utf-8"?>
<!-- Generator: Adobe Illustrator 23.0.1, SVG Export Plug-In . SVG Version: 6.00 Build 0)  -->
<svg version="1.1" id="Layer_1" xmlns="http://www.w3.org/2000/svg" xmlns:xlink="http://www.w3.org/1999/xlink" x="0px" y="0px"
	 viewBox="0 0 512 304" style="enable-background:new 0 0 512 304;" xml:space="preserve">
<style type="text/css">
	.st0{fill:#F6F6F8;}
</style>
<g>
	<g>
		<g>
			<path class="st0" d="M201.6,123c0-13.8,10.4-23.2,23.9-23.2c9.9,0,15.6,5.4,18.7,11l-8.2,4c-1.9-3.6-5.9-6.5-10.6-6.5
				c-8.1,0-14,6.3-14,14.7s5.9,14.7,14,14.7c4.6,0,8.7-2.8,10.6-6.5l8.2,4c-3.2,5.6-8.9,11-18.7,11
				C212.1,146.2,201.6,136.7,201.6,123z"/>
			<path class="st0" d="M247.5,123c0-13.5,9.9-23.2,23.4-23.2c13.6,0,23.4,9.7,23.4,23.2s-9.9,23.2-23.4,23.2
				C257.3,146.2,247.5,136.5,247.5,123z M284.5,123c0-8.4-5.4-14.7-13.6-14.7c-8.3,0-13.6,6.3-13.6,14.7c0,8.3,5.3,14.7,13.6,14.7
				C279.1,137.7,284.5,131.3,284.5,123z"/>
			<path class="st0" d="M339.6,145.3V114L327,145.3h-4.2L310.1,114v31.4h-9.5v-44.8H314l10.9,27.1l10.9-27.1h13.4v44.8L339.6,145.3
				L339.6,145.3z"/>
			<path class="st0" d="M396.7,145.3V114l-12.6,31.4h-4.2L367.2,114v31.4h-9.5v-44.8h13.4l10.9,27.1l10.9-27.1h13.4v44.8
				L396.7,145.3L396.7,145.3z"/>
			<path class="st0" d="M412.7,123c0-13.5,9.9-23.2,23.4-23.2c13.6,0,23.4,9.7,23.4,23.2s-9.9,23.2-23.4,23.2
				C422.6,146.2,412.7,136.5,412.7,123z M449.7,123c0-8.4-5.4-14.7-13.6-14.7s-13.6,6.3-13.6,14.7c0,8.3,5.3,14.7,13.6,14.7
				S449.7,131.3,449.7,123z"/>
			<path class="st0" d="M496.8,145.3l-21.4-29.2v29.2h-9.5v-44.8h9.8l20.8,28.2v-28.2h9.5v44.8L496.8,145.3L496.8,145.3z"/>
		</g>
		<g>
			<path class="st0" d="M204.1,201.3v-44.8h17.7c14,0,23.8,8.9,23.8,22.4c0,13.5-9.7,22.4-23.8,22.4L204.1,201.3L204.1,201.3z
				 M235.8,179c0-7.9-4.8-14-14-14h-8.1v28h8.1C230.6,192.9,235.8,186.5,235.8,179z"/>
			<path class="st0" d="M252,201.3v-44.8h31.7v8.4h-22.2v9.5h21.7v8.4h-21.7v10.1h22.2v8.4H252z"/>
			<path class="st0" d="M290.8,201.3v-44.8h31.7v8.4h-22.2v9.5h21.7v8.4h-21.7v18.5H290.8z"/>
			<path class="st0" d="M328.9,201.3v-44.8h31.7v8.4h-22.2v9.5h21.7v8.4h-21.7v10.1h22.2v8.4H328.9z"/>
			<path class="st0" d="M398.6,201.3l-21.4-29.2v29.2h-9.5v-44.8h9.8l20.8,28.2v-28.2h9.5v44.8L398.6,201.3L398.6,201.3z"/>
			<path class="st0" d="M413.3,195l5.2-7.2c3.2,3.3,8.1,6.1,14.2,6.1c5.2,0,7.8-2.4,7.8-5c0-7.9-25.8-2.5-25.8-19.4
				c0-7.5,6.5-13.6,17-13.6c7.1,0,13,2.2,17.5,6.3l-5.3,7c-3.6-3.4-8.5-4.9-13-4.9c-4.1,0-6.4,1.8-6.4,4.5c0,7.1,25.7,2.3,25.7,19.1
				c0,8.2-5.8,14.4-17.9,14.4C423.6,202.1,417.4,199.2,413.3,195z"/>
			<path class="st0" d="M456.3,201.3v-44.8H488v8.4h-22.2v9.5h21.7v8.4h-21.7v10.1H488v8.4H456.3z"/>
		</g>
	</g>
	<g>
		<g>
			<rect x="88.4" y="102.2" class="st0" width="101.5" height="7.6"/>
			<rect x="88.4" y="118" class="st0" width="101.5" height="7.6"/>
			<rect x="88.4" y="133.5" class="st0" width="101.5" height="7.6"/>
			<rect x="88.4" y="149.3" class="st0" width="101.5" height="7.6"/>
			<rect x="6.3" y="165.3" class="st0" width="183.6" height="7.6"/>
			<rect x="6.3" y="180.8" class="st0" width="183.6" height="7.6"/>
			<rect x="6.3" y="196.6" class="st0" width="183.6" height="7.6"/>
		</g>
		<g>
			<g>
				<polygon class="st0" points="9.6,101.9 10.5,104.5 13.2,104.5 11,106.2 11.8,108.8 9.6,107.2 7.4,108.8 8.2,106.2 6,104.5 
					8.7,104.5 				"/>
				<polygon class="st0" points="24.3,101.9 25.1,104.5 27.8,104.5 25.6,106.2 26.5,108.8 24.3,107.2 22,108.8 22.9,106.2 
					20.7,104.5 23.4,104.5 				"/>
				<polygon class="st0" points="38.6,101.9 39.4,104.5 42.2,104.5 40,106.2 40.8,108.8 38.6,107.2 36.4,108.8 37.2,106.2 35,104.5 
					37.7,104.5 				"/>
				<polygon class="st0" points="53.3,101.9 54.1,104.5 56.8,104.5 54.6,106.2 55.5,108.8 53.3,107.2 51,108.8 51.9,106.2 
					49.7,104.5 52.4,104.5 				"/>
				<polygon class="st0" points="67.6,101.9 68.4,104.5 71.2,104.5 68.9,106.2 69.8,108.8 67.6,107.2 65.4,108.8 66.2,106.2 
					64,104.5 66.7,104.5 				"/>
				<polygon class="st0" points="82.2,101.9 83.1,104.5 85.8,104.5 83.6,106.2 84.5,108.8 82.2,107.2 80,108.8 80.9,106.2 
					78.6,104.5 81.4,104.5 				"/>
			</g>
			<g>
				<polygon class="st0" points="17.3,108 18.1,110.6 20.9,110.6 18.6,112.2 19.5,114.8 17.3,113.2 15.1,114.8 15.9,112.2 
					13.7,110.6 16.4,110.6 				"/>
				<polygon class="st0" points="31.9,108 32.8,110.6 35.5,110.6 33.3,112.2 34.2,114.8 31.9,113.2 29.7,114.8 30.5,112.2 
					28.3,110.6 31.1,110.6 				"/>
				<polygon class="st0" points="46.3,108 47.1,110.6 49.8,110.6 47.6,112.2 48.5,114.8 46.3,113.2 44,114.8 44.9,112.2 42.6,110.6 
					45.4,110.6 				"/>
				<polygon class="st0" points="60.9,108 61.8,110.6 64.5,110.6 62.3,112.2 63.1,114.8 60.9,113.2 58.7,114.8 59.5,112.2 
					57.3,110.6 60.1,110.6 				"/>
				<polygon class="st0" points="75.3,108 76.1,110.6 78.8,110.6 76.6,112.2 77.5,114.8 75.3,113.2 73,114.8 73.9,112.2 71.6,110.6 
					74.4,110.6 				"/>
			</g>
			<g>
				<polygon class="st0" points="17.3,120 18.1,122.5 20.9,122.5 18.6,124.2 19.5,126.8 17.3,125.2 15.1,126.8 15.9,124.2 
					13.7,122.5 16.4,122.5 				"/>
				<polygon class="st0" points="31.9,120 32.8,122.5 35.5,122.5 33.3,124.2 34.2,126.8 31.9,125.2 29.7,126.8 30.5,124.2 
					28.3,122.5 31.1,122.5 				"/>
				<polygon class="st0" points="46.3,120 47.1,122.5 49.8,122.5 47.6,124.2 48.5,126.8 46.3,125.2 44,126.8 44.9,124.2 42.6,122.5 
					45.4,122.5 				"/>
				<polygon class="st0" points="60.9,120 61.8,122.5 64.5,122.5 62.3,124.2 63.1,126.8 60.9,125.2 58.7,126.8 59.5,124.2 
					57.3,122.5 60.1,122.5 				"/>
				<polygon class="st0" points="75.3,120 76.1,122.5 78.8,122.5 76.6,124.2 77.5,126.8 75.3,125.2 73,126.8 73.9,124.2 71.6,122.5 
					74.4,122.5 				"/>
			</g>
			<g>
				<polygon class="st0" points="17.3,131.9 18.1,134.5 20.9,134.5 18.6,136.2 19.5,138.8 17.3,137.2 15.1,138.8 15.9,136.2 
					13.7,134.5 16.4,134.5 				"/>
				<polygon class="st0" points="31.9,131.9 32.8,134.5 35.5,134.5 33.3,136.2 34.2,138.8 31.9,137.2 29.7,138.8 30.5,136.2 
					28.3,134.5 31.1,134.5 				"/>
				<polygon class="st0" points="46.3,131.9 47.1,134.5 49.8,134.5 47.6,136.2 48.5,138.8 46.3,137.2 44,138.8 44.9,136.2 
					42.6,134.5 45.4,134.5 				"/>
				<polygon class="st0" points="60.9,131.9 61.8,134.5 64.5,134.5 62.3,136.2 63.1,138.8 60.9,137.2 58.7,138.8 59.5,136.2 
					57.3,134.5 60.1,134.5 				"/>
				<polygon class="st0" points="75.3,131.9 76.1,134.5 78.8,134.5 76.6,136.2 77.5,138.8 75.3,137.2 73,138.8 73.9,136.2 
					71.6,134.5 74.4,134.5 				"/>
			</g>
			<g>
				<polygon class="st0" points="17.3,143.9 18.1,146.5 20.9,146.5 18.6,148.2 19.5,150.8 17.3,149.2 15.1,150.8 15.9,148.2 
					13.7,146.5 16.4,146.5 				"/>
				<polygon class="st0" points="31.9,143.9 32.8,146.5 35.5,146.5 33.3,148.2 34.2,150.8 31.9,149.2 29.7,150.8 30.5,148.2 
					28.3,146.5 31.1,146.5 				"/>
				<polygon class="st0" points="46.3,143.9 47.1,146.5 49.8,146.5 47.6,148.2 48.5,150.8 46.3,149.2 44,150.8 44.9,148.2 
					42.6,146.5 45.4,146.5 				"/>
				<polygon class="st0" points="60.9,143.9 61.8,146.5 64.5,146.5 62.3,148.2 63.1,150.8 60.9,149.2 58.7,150.8 59.5,148.2 
					57.3,146.5 60.1,146.5 				"/>
				<polygon class="st0" points="75.3,143.9 76.1,146.5 78.8,146.5 76.6,148.2 77.5,150.8 75.3,149.2 73,150.8 73.9,148.2 
					71.6,146.5 74.4,146.5 				"/>
			</g>
			<g>
				<polygon class="st0" points="9.6,113.9 10.5,116.4 13.2,116.4 11,118.1 11.8,120.8 9.6,119.2 7.4,120.8 8.2,118.1 6,116.4 
					8.7,116.4 				"/>
				<polygon class="st0" points="24.3,113.9 25.1,116.4 27.8,116.4 25.6,118.1 26.5,120.8 24.3,119.2 22,120.8 22.9,118.1 
					20.7,116.4 23.4,116.4 				"/>
				<polygon class="st0" points="38.6,113.9 39.4,116.4 42.2,116.4 40,118.1 40.8,120.8 38.6,119.2 36.4,120.8 37.2,118.1 35,116.4 
					37.7,116.4 				"/>
				<polygon class="st0" points="53.3,113.9 54.1,116.4 56.8,116.4 54.6,118.1 55.5,120.8 53.3,119.2 51,120.8 51.9,118.1 
					49.7,116.4 52.4,116.4 				"/>
				<polygon class="st0" points="67.6,113.9 68.4,116.4 71.2,116.4 68.9,118.1 69.8,120.8 67.6,119.2 65.4,120.8 66.2,118.1 
					64,116.4 66.7,116.4 				"/>
				<polygon class="st0" points="82.2,113.9 83.1,116.4 85.8,116.4 83.6,118.1 84.5,120.8 82.2,119.2 80,120.8 80.9,118.1 
					78.6,116.4 81.4,116.4 				"/>
			</g>
			<g>
				<polygon class="st0" points="9.6,126.1 10.5,128.7 13.2,128.7 11,130.3 11.8,132.8 9.6,131.2 7.4,132.8 8.2,130.3 6,128.7 
					8.7,128.7 				"/>
				<polygon class="st0" points="24.3,126.1 25.1,128.7 27.8,128.7 25.6,130.3 26.5,132.8 24.3,131.2 22,132.8 22.9,130.3 
					20.7,128.7 23.4,128.7 				"/>
				<polygon class="st0" points="38.6,126.1 39.4,128.7 42.2,128.7 40,130.3 40.8,132.8 38.6,131.2 36.4,132.8 37.2,130.3 35,128.7 
					37.7,128.7 				"/>
				<polygon class="st0" points="53.3,126.1 54.1,128.7 56.8,128.7 54.6,130.3 55.5,132.8 53.3,131.2 51,132.8 51.9,130.3 
					49.7,128.7 52.4,128.7 				"/>
				<polygon class="st0" points="67.6,126.1 68.4,128.7 71.2,128.7 68.9,130.3 69.8,132.8 67.6,131.2 65.4,132.8 66.2,130.3 
					64,128.7 66.7,128.7 				"/>
				<polygon class="st0" points="82.2,126.1 83.1,128.7 85.8,128.7 83.6,130.3 84.5,132.8 82.2,131.2 80,132.8 80.9,130.3 
					78.6,128.7 81.4,128.7 				"/>
			</g>
			<g>
				<polygon class="st0" points="9.6,138 10.5,140.6 13.2,140.6 11,142.2 11.8,144.9 9.6,143.2 7.4,144.9 8.2,142.2 6,140.6 
					8.7,140.6 				"/>
				<polygon class="st0" points="24.3,138 25.1,140.6 27.8,140.6 25.6,142.2 26.5,144.9 24.3,143.2 22,144.9 22.9,142.2 20.7,140.6 
					23.4,140.6 				"/>
				<polygon class="st0" points="38.6,138 39.4,140.6 42.2,140.6 40,142.2 40.8,144.9 38.6,143.2 36.4,144.9 37.2,142.2 35,140.6 
					37.7,140.6 				"/>
				<polygon class="st0" points="53.3,138 54.1,140.6 56.8,140.6 54.6,142.2 55.5,144.9 53.3,143.2 51,144.9 51.9,142.2 49.7,140.6 
					52.4,140.6 				"/>
				<polygon class="st0" points="67.6,138 68.4,140.6 71.2,140.6 68.9,142.2 69.8,144.9 67.6,143.2 65.4,144.9 66.2,142.2 64,140.6 
					66.7,140.6 				"/>
				<polygon class="st0" points="82.2,138 83.1,140.6 85.8,140.6 83.6,142.2 84.5,144.9 82.2,143.2 80,144.9 80.9,142.2 78.6,140.6 
					81.4,140.6 				"/>
			</g>
			<g>
				<polygon class="st0" points="9.6,150 10.5,152.6 13.2,152.6 11,154.2 11.8,156.8 9.6,155.2 7.4,156.8 8.2,154.2 6,152.6 
					8.7,152.6 				"/>
				<polygon class="st0" points="24.3,150 25.1,152.6 27.8,152.6 25.6,154.2 26.5,156.8 24.3,155.2 22,156.8 22.9,154.2 20.7,152.6 
					23.4,152.6 				"/>
				<polygon class="st0" points="38.6,150 39.4,152.6 42.2,152.6 40,154.2 40.8,156.8 38.6,155.2 36.4,156.8 37.2,154.2 35,152.6 
					37.7,152.6 				"/>
				<polygon class="st0" points="53.3,150 54.1,152.6 56.8,152.6 54.6,154.2 55.5,156.8 53.3,155.2 51,156.8 51.9,154.2 49.7,152.6 
					52.4,152.6 				"/>
				<polygon class="st0" points="67.6,150 68.4,152.6 71.2,152.6 68.9,154.2 69.8,156.8 67.6,155.2 65.4,156.8 66.2,154.2 64,152.6 
					66.7,152.6 				"/>
				<polygon class="st0" points="82.2,150 83.1,152.6 85.8,152.6 83.6,154.2 84.5,156.8 82.2,155.2 80,156.8 80.9,154.2 78.6,152.6 
					81.4,152.6 				"/>
			</g>
		</g>
	</g>
</g>
</svg>
