<?xml version="1.0" encoding="utf-8"?>
<!-- Generator: Adobe Illustrator 23.0.1, SVG Export Plug-In . SVG Version: 6.00 Build 0)  -->
<svg version="1.1" id="Layer_1" xmlns="http://www.w3.org/2000/svg" xmlns:xlink="http://www.w3.org/1999/xlink" x="0px" y="0px"
	 viewBox="0 0 512 304" style="enable-background:new 0 0 512 304;" xml:space="preserve">
<style type="text/css">
	.st0{fill:#F6F6F8;}
</style>
<g>
	<g>
		<path class="st0" d="M218.1,108.1c0.4-0.1,0.8-0.1,1.2-0.2l0,0c-0.2,0.2-0.5,0.4-0.7,0.6C218.4,108.4,218.2,108.2,218.1,108.1z"/>
		<path class="st0" d="M115.9,187.3c0,0.1,0,0.2,0,0.3c-0.1,0-0.2-0.1-0.3-0.1C115.8,187.4,115.9,187.4,115.9,187.3
			C116,187.3,115.9,187.3,115.9,187.3z"/>
		<path class="st0" d="M81.4,128.5c0.1,0,0.2,0,0.3-0.1c0,0.1,0,0.2,0,0.3C81.6,128.6,81.5,128.5,81.4,128.5
			C81.4,128.4,81.4,128.5,81.4,128.5z"/>
		<path class="st0" d="M129.1,149.6c0-0.2,0-0.3,0-0.5c0.1,0.1,0.3,0.1,0.4,0.2C129.4,149.4,129.2,149.5,129.1,149.6z"/>
		<path class="st0" d="M107.1,116.2c0.1,0.1,0.2,0.3,0.2,0.4c-0.2,0-0.3,0-0.5-0.1C106.9,116.3,107,116.3,107.1,116.2z"/>
		<path class="st0" d="M221.9,111.4c0.1-0.1,0.2-0.2,0.4-0.2c0,0.2-0.1,0.3-0.1,0.5C222,111.6,222,111.5,221.9,111.4z"/>
		<path class="st0" d="M15.1,203.5c0-0.2,0-0.3,0-0.5c0.1,0.1,0.3,0.1,0.4,0.2C15.2,203.3,15.2,203.4,15.1,203.5z"/>
		<path class="st0" d="M116,187.3c0.1-0.2,0.2-0.3,0.3-0.5c0.1,0.1,0.2,0.2,0.3,0.3C116.4,187.2,116.1,187.2,116,187.3
			C115.9,187.3,116,187.3,116,187.3z"/>
		<path class="st0" d="M219.3,107.9c-0.1-0.1-0.2-0.2-0.3-0.3C219.1,107.7,219.1,107.8,219.3,107.9
			C219.2,107.9,219.3,107.9,219.3,107.9z"/>
		<path class="st0" d="M105.8,143.4c0.1,0.1,0.3,0.3,0.4,0.4c-0.1,0.1-0.1,0.1-0.2,0.2c-0.2-0.1-0.4-0.2-0.5-0.3
			C105.6,143.6,105.7,143.5,105.8,143.4z"/>
	</g>
	<path class="st0" d="M52.2,243.7c8.4-0.5,16.8-1,25.2-1.4c9.3-0.4,18.5-1.1,27.8-1c7.8,0.1,15.5,1.1,23.4,1.8
		c0.8,0.1,1.5,0.4,2.3,0.6c0,0.2,0,0.4,0,0.6c-1.2,0.3-2.4,0.6-3.8,0.9c0.2-0.6,0.3-1,0.5-1.4c-0.3,0-0.5,0-0.7,0.1
		c-1.8,0.1-3.7,0.5-5.4,0.4c-9.2-0.4-18.3-1.3-27.5-1.2c-11.3,0-22.7,0.8-34,1.2c-2.6,0.1-5.1,0.1-7.8,0.2
		C52.2,244.2,52.2,244,52.2,243.7z"/>
	<path class="st0" d="M127.7,249c-5.2-0.4-10.1-0.8-14.8-1.2C114.4,246.6,126.4,247.5,127.7,249z"/>
	<path class="st0" d="M197.3,114.2c-0.1,0.5-0.2,1-0.4,1.3c-3.6,4.4-7.1,8.6-10.8,13c-0.3,0.4-1,0.5-1.5,0.7
		c0.1-0.6,0.1-1.3,0.4-1.7c3.9-4.6,7.7-9,11.6-13.6C196.9,114,197.1,114.1,197.3,114.2z"/>
	<path class="st0" d="M208,107.7c-3.9,5.3-12.7,14.6-14.2,14.8C194.6,120.2,206.1,108,208,107.7z"/>
	<path class="st0" d="M183.5,155c-1.8,4.9-4.9,13.3-6.7,18.2c-0.2-0.1-0.4-0.2-0.7-0.2c1.8-4.9,5.6-16,7.4-20.9
		C183.8,152.1,183.2,154.9,183.5,155z"/>
	<path class="st0" d="M132.2,205.4c0.6,0.3,1.1,0.6,1.8,0.9c-1.4,3.4-2.8,6.6-4.2,9.9c-0.1-0.1-0.3-0.1-0.4-0.2
		C130.4,212.6,131.4,209.1,132.2,205.4z"/>
	<path class="st0" d="M112.4,213.5c1.5,3.7,0.1,6.7-2.5,9.3C110.7,219.8,111.5,216.7,112.4,213.5z"/>
	<path class="st0" d="M115.7,218.2c0.4-3.4,0.8-6.7,1.2-10.1c0.5,1.3-0.9,3.3,2.1,3.2c-1.1,2.6-2.1,4.8-3.1,7
		C115.9,218.3,115.8,218.2,115.7,218.2z"/>
	<path class="st0" d="M109.1,211.2c1.3-3.3,2.6-6.6,3.9-9.9c0.2,0.1,0.5,0.2,0.7,0.3c-1.3,3.4-2.5,6.6-3.8,10
		C109.7,211.5,109.4,211.3,109.1,211.2z"/>
	<path class="st0" d="M142.7,204c-1.1,1.4-2.3,2.7-3.2,4.3c-0.9,1.5-1.4,3.2-2.2,4.8C138.1,209.4,138.8,205.7,142.7,204z"/>
	<path class="st0" d="M137.9,205.2c-1,2.6-2.1,5-3.1,7.6C135,210,134.5,206.8,137.9,205.2L137.9,205.2z"/>
	<path class="st0" d="M126.2,216.6c1-3.4,1.9-6.7,2.9-10.2c0.3,0.1,0.7,0.2,1,0.3C128.8,210.1,127.5,213.4,126.2,216.6
		C126.1,216.6,126.2,216.6,126.2,216.6z"/>
	<path class="st0" d="M172.1,158.2c-0.9,2.9-1.8,5.8-2.7,8.7c-0.3-0.1-0.5-0.2-0.8-0.2c0.9-2.9,1.9-5.7,2.8-8.7
		C171.7,158.1,171.9,158.2,172.1,158.2z"/>
	<path class="st0" d="M193.2,130.3c-1.6,2.3-3.2,4.7-4.9,6.9c-0.3-0.2-0.5-0.4-0.8-0.5c1.7-2.3,3.3-4.6,4.9-6.8
		C192.8,130,193,130.2,193.2,130.3z"/>
	<path class="st0" d="M133.9,225.8c0.5-2.1,1-4.2,1.5-6.2c0.2,0,0.3,0.1,0.5,0.1c-0.4,2.1-0.8,4.3-1.2,6.3
		C134.5,226,134.2,225.9,133.9,225.8z"/>
	<path class="st0" d="M214.3,115.1c-0.3,0.6-0.5,1.2-0.8,1.8c-0.3-0.3-0.6-0.5-0.8-0.8c0.4-0.5,0.8-0.9,1.2-1.4
		C214.1,114.9,214.2,115,214.3,115.1z"/>
	<path class="st0" d="M152.3,198.6c-0.3,0.1-0.6,0.1-0.9,0.2c0-0.1,0-0.2-0.1-0.3c0.2-0.1,0.5-0.2,0.7-0.2
		C152.1,198.3,152.2,198.4,152.3,198.6z"/>
	<path class="st0" d="M126.1,216.6c0,0.1,0,0.2,0,0.4v-0.1C126.2,216.8,126.2,216.7,126.1,216.6
		C126.2,216.6,126.1,216.6,126.1,216.6z"/>
	<path class="st0" d="M125.2,201.5c-0.2,0.2-0.4,0.4-0.6,0.5c-0.1-0.1-0.1-0.2-0.2-0.2c0.1-0.3,0.3-0.5,0.4-0.8
		C125,201.2,125.1,201.3,125.2,201.5z"/>
	<path class="st0" d="M124.7,202c-0.2,0.1-0.5,0.2-0.7,0.4c0-0.1-0.1-0.2-0.1-0.3c0.2-0.1,0.4-0.2,0.6-0.3
		C124.5,201.9,124.6,202,124.7,202z"/>
	<path class="st0" d="M134.1,199.4c0.1-0.1,0.2-0.3,0.3-0.4c0.2,0.1,0.3,0.2,0.5,0.3c-0.2,0.1-0.3,0.2-0.5,0.4
		C134.4,199.6,134.2,199.5,134.1,199.4z"/>
	<path class="st0" d="M134.4,199.6c-0.1,0.2-0.2,0.4-0.3,0.5l0,0c0-0.3,0-0.5,0-0.8C134.2,199.5,134.4,199.6,134.4,199.6z"/>
	<path class="st0" d="M134.1,200.2C134,200.2,133.9,200.2,134.1,200.2C133.9,200.1,134,200.2,134.1,200.2S134.1,200.2,134.1,200.2z"
		/>
	<polygon class="st0" points="142.9,203.3 143.1,203.3 143,203.4 	"/>
	<path class="st0" d="M137.9,205.3c0.1-0.1,0.1-0.2,0.2-0.3c0,0.1,0,0.2,0.1,0.2C138.1,205.2,138,205.2,137.9,205.3
		C137.9,205.2,137.9,205.3,137.9,205.3z"/>
	<path class="st0" d="M98.1,210.8c0.1,0.1,0.1,0.3,0.2,0.4c-0.1-0.1-0.2-0.1-0.4-0.2C98,210.9,98.1,210.8,98.1,210.8z"/>
	<path class="st0" d="M53.9,212.3c-0.8-0.6-1.7-1.2-2.4-1.9c-4-4.2-4.5-9.4-4.2-14.7c0.1-1.3,0.7-2.7,1.1-3.9
		c0.7-1.9,1.5-3.8,2.4-5.6c0.4-0.9,1-1.8,1.8-2.5c2.4-2.1,4.9-4,7.3-5.9c1.7,0.7,1.3,1.8,0.6,3c-2.9,4.8-5.5,9.7-6.2,15.2
		c-0.5,4.1-0.2,8.2-0.2,12.3c0,1.2,0.3,2.5,0.4,3.7C54.2,212,54.1,212.2,53.9,212.3z M51.4,194.3c-0.4-0.6-0.8-1.2-1.2-1.7
		c-0.3,0.2-0.6,0.3-0.9,0.5c0.2,2.7,0.4,5.3,0.7,8c0.1,0.7,0.6,1.5,0.4,2c-1.3,2.3,1,3.1,1.5,4.9c0.3-2.2,0.5-4,0.6-5.6
		c0-0.3-0.3-0.6-0.3-1c0-0.7,0-1.3,0-2c0-1.2,0-2.3-0.2-3.5C51.9,195.4,51.6,194.8,51.4,194.3c0.5,0.3,1,0.7,1.8,1.2
		c-0.7-3.3,1.9-6-0.3-9.4c0,1.7,0.1,2.8,0.1,4.1c-0.7-0.3-1.2-0.4-2.2-0.8c0,1.1,0,1.9,0.1,2.6C51,192.9,51.2,193.6,51.4,194.3z
		 M55.5,187.6c0.4-1.8,0.7-3.3,1.1-5C54.4,184.2,54.1,185.3,55.5,187.6z"/>
	<path class="st0" d="M40.1,178.4c-0.6,0.7-1.2,1.5-2.1,2.6c0.3-3.2,5.9-10.3,11-14.1c1.3,0.9,1.4,1.8,0.4,3c-1.4,1.6-2.6,3.4-4,5
		c-0.4-0.8-0.6-1.3-0.9-2c-0.8,0.9-1.4,1.7-2.1,2.5c0.2,0.1,0.4,0.2,0.6,0.3c-0.1,0.6,0.1,1.3-0.2,1.7c-2.6,4.8-5.1,9.4-7.7,14.1
		c-0.3,0.7-0.3,1.6-0.3,2.4c0.2,2.3,0.6,4.6,0.9,6.9c-2.9-2.1-3.1-2.2-2.1-5.2c1-3-0.6-6.2,1.9-9c2-2.3,3.4-5,5-7.6
		c0.5-0.7,1.1-1.5,1.6-2.2c-0.2-0.1-0.3-0.2-0.5-0.4C41.2,177,40.6,177.7,40.1,178.4z"/>
	<path class="st0" d="M86.3,226.4c-4.9,2.3-10.1,2.4-15.2,2.5c-0.6-0.4-1.3-0.8-1.9-1.2l0,0c-0.7-1.1-1.3-2.1-2.3-3.7
		c2,1.4,3.5,2.5,5,3.7c0.2-0.2,0.3-0.3,0.5-0.5c-0.4-0.9-0.7-1.8-1.3-3.1c1,0.7,1.6,1,2.2,1.4c0.2,0.3,0.3,0.5,0.5,0.8
		c0.1,0,0.2-0.1,0.3-0.1c-0.1-0.4-0.2-0.8-0.3-1.3c-0.1-0.4-0.1-0.7-0.2-1.1l0,0c1.3,0.8,2.6,1.6,4,2.4c0.1-0.4,0.2-0.8,0.3-1.5
		c1,0.6,2,1.1,3.4,1.9c-1.7-5.1-1.7-10-0.8-14.8c0.2,0,0.4,0,0.5-0.1c0.1,1.8,0.3,3.5,0.4,5.2c0.1,2,0.2,4,0.3,5.9
		c0.1,3,0.5,3.3,3.5,3.2C85.6,226.1,86,226.3,86.3,226.4z"/>
	<path class="st0" d="M71.1,215.1c0.7,1.4,1.4,2.8,2.1,4.2c-2.4-1.5-2.8-4.8-6.2-5.8c1,2,1.7,3.5,2.4,5c-0.1,0.1-0.3,0.2-0.4,0.3
		c-1.3-1.8-2.5-3.5-3.8-5.2c-0.2,0.1-0.4,0.2-0.5,0.2c-0.1,0.8-0.1,1.6-0.2,2.6c-1.1-1-2-1.8-3.4-3c0.2,1.8,0.3,2.9,0.5,4.5
		c-0.9-1.2-1.5-2.1-2.1-2.9c-0.7,0.4-1.3,1-2,1.1c-0.3,0-1.1-0.9-1-1.3c0.1-0.5,0.7-1.2,1.2-1.3c4.3-0.7,8.5-1.4,12.9-0.2
		c3.1,0.8,3.4,1.2,3.4,4.9c-0.9-1.3-1.6-2.4-2.4-3.5c-0.1,0-0.2-0.1-0.4-0.1C71.2,214.7,71.1,214.9,71.1,215.1z"/>
	<path class="st0" d="M68.2,228.9c-2.9,0.3-5.7,0.7-8.6,0.9c-0.5,0.1-1-0.1-1.5-0.1c0-0.8,0.1-1.6,0.1-2.6c1.1,0.4,2,0.8,3.1,1.3
		c0.1-0.4,0.2-0.7,0.3-1.2c1.8,0.6,3.6,1.5,4.9-0.4c1.1,0.3,2,0.6,2.9,0.9l0,0C68.9,228.1,68.6,228.5,68.2,228.9z"/>
	<path class="st0" d="M108.2,153.6c1.4,6.5,0.6,9.9-4,9.6c0.1-0.8,0.2-1.6,0.3-1.9c0.7-0.1,1.5-0.1,1.6-0.4c0.7-1.5,1.4-3.1,1.9-4.7
		C108.4,155.4,108.2,154.4,108.2,153.6z"/>
	<path class="st0" d="M51.9,216.6c-0.7,0.4-1.2,0.6-1.9,1c-1.3-2.3-2.5-4.6-3.7-6.7c0.3-0.2,0.5-0.4,0.8-0.5
		C48.6,212.4,50.2,214.3,51.9,216.6z"/>
	<path class="st0" d="M62.1,193c-0.1,3.3-0.3,6.4-0.4,9.7c-0.2,0-0.4,0-0.7,0c0.1-3.3,0.1-6.4,0.2-9.7C61.5,193,61.8,193,62.1,193z"
		/>
	<path class="st0" d="M99.6,194.7c-0.2-3-0.5-5.8-0.7-8.8c0.2,0,0.3,0,0.5-0.1c0.3,3,0.6,5.8,0.9,8.8
		C100,194.6,99.8,194.6,99.6,194.7z"/>
	<path class="st0" d="M63.5,222.8c-1.6-0.4-2.5-0.6-3.9-0.9c0-0.7,0-1.8-0.1-2.8c0.2,0,0.4-0.1,0.5-0.1
		C61.2,220.1,62.2,221.3,63.5,222.8z"/>
	<path class="st0" d="M66.7,198c0.5-2.5,1-4.9,1.6-7.6C69.1,191.7,68.4,195.8,66.7,198z"/>
	<path class="st0" d="M57.3,223.9c-1.5-1.5-2.8-2.8-4.1-4.1c0.1-0.2,0.3-0.4,0.4-0.6c1.5,1.1,3,2.2,4.5,3.3
		C58.1,222.7,57.7,223.2,57.3,223.9z"/>
	<path class="st0" d="M73.6,223.9c-0.1,0-0.2-0.1-0.3-0.1C73.5,223.8,73.5,223.8,73.6,223.9L73.6,223.9z"/>
	<path class="st0" d="M71.5,128.7c-0.1-0.1-0.2-0.2-0.3-0.2c0.2,0,0.3,0,0.5,0C71.7,128.5,71.6,128.6,71.5,128.7z"/>
	<path class="st0" d="M83.7,157.2c0.1,0,0.2,0.1,0.4,0.1c0,0.1,0,0.1-0.1,0.2C84,157.4,83.9,157.3,83.7,157.2
		C83.8,157.2,83.7,157.2,83.7,157.2z"/>
	<path class="st0" d="M73.5,232.3c14.4-1.3,28.7-1.1,43.1-0.1c-14.4,0.4-28.7,0.8-43.1,1.2C73.5,232.9,73.5,232.7,73.5,232.3z"/>
	<path class="st0" d="M68.3,233.8c-4.6,0.6-9.2,1.2-14,1.8C55.7,234.2,62.3,233.3,68.3,233.8z"/>
	<path class="st0" d="M101.9,115.7c-2.1-2.7-4.3-5.2-6.3-7.9c0.2-0.2,0.5-0.4,0.7-0.6c2.1,2.7,4.2,5.3,6.2,8
		C102.3,115.4,102.1,115.6,101.9,115.7z"/>
	<path class="st0" d="M70,143.5c0.1,0.2,0.1,0.5,0.2,0.7c-0.2-0.1-0.3-0.3-0.5-0.4C69.8,143.7,69.9,143.6,70,143.5z"/>
	<path class="st0" d="M78,125.7c0.2,0.1,0.3,0.3,0.5,0.4C78.3,126,78.1,125.8,78,125.7z"/>
	<path class="st0" d="M68,144.7c0,0.2,0,0.4,0,0.6c-0.1-0.1-0.2-0.2-0.3-0.4C67.8,144.9,67.9,144.8,68,144.7z"/>
	<path class="st0" d="M125.5,173c0.1,0.1,0.2,0.2,0.2,0.3c-0.2,0-0.3,0-0.5-0.1C125.4,173.1,125.5,173.1,125.5,173z"/>
	<path class="st0" d="M135.3,146.6c0.1,0.4,0.1,0.8,0.2,1.1c-0.1,0-0.2,0-0.2,0.1c-0.1-0.3-0.2-0.6-0.3-0.9
		C135.1,146.7,135.2,146.6,135.3,146.6z"/>
	<path class="st0" d="M139,145c-0.1-0.1-0.1-0.2-0.1-0.3s0.1-0.1,0.1-0.2c0,0.1,0.1,0.1,0.1,0.2S139,144.9,139,145z"/>
	<path class="st0" d="M137.9,136.6c-0.1-0.3-0.2-0.6-0.3-0.8c0.1,0,0.2-0.1,0.3-0.1c0.1,0.2,0.2,0.5,0.3,0.7
		C138.1,136.4,138,136.5,137.9,136.6z"/>
	<g>
		<path class="st0" d="M213.7,146.6h-19.2v17h17.4v9.6h-17.4v29.2h-11.4v-66h30.6V146.6z"/>
		<path class="st0" d="M233,184.8l-2.4,17.6h-11.1l10.5-66h14.7l11.8,66h-11.1l-2.9-17.6H233z M239.4,164.1
			c-0.6-4.3-1.4-10.4-2-17.4c-0.7,9.4-1,12-1.7,17.4l-1.6,11.2h7L239.4,164.1z"/>
		<path class="st0" d="M277.7,202.5h-11.4v-66h11.4V202.5z"/>
		<path class="st0" d="M303,202.5h-11.4v-66h15.6c6.9,0,10.3,0.7,12.6,2.8c2.7,2.4,4,7.2,4,15.1c0,9.6-1.3,12-7.7,13.5
			c5.6,1,7.3,3.5,7.3,11.4v9.5c0,8.4,0.2,10.8,1.1,13.8h-12c-0.4-2.5-0.5-3.6-0.5-8.3v-12.1c0-7.2-1.6-9.6-6.4-9.6H303V202.5z
			 M306.3,163.3c5.1,0,6.6-2.1,6.6-8.8c0-7-1.3-8.8-6.4-8.8H303v17.6C303,163.3,306.3,163.3,306.3,163.3z"/>
		<path class="st0" d="M359,202.5l-7.8-26.6c-2.5-9.1-3.2-11.8-5.3-21.7c0.1,1.4,0.2,2.4,0.2,2.8l0.4,5.6c0.1,2.6,0.3,8.8,0.5,14.2
			l0.3,25.7h-10.6v-66H349l7.8,27c1.6,5.5,3.2,12.3,4.7,19.7c-0.2-7.6-0.4-14.2-0.5-19.7l-0.3-27h10.6v66H359z"/>
		<path class="st0" d="M415.6,147h-19.2v16.7h18.1v9.6h-18.1v18.5h20.3v10.6H385v-66h30.6V147z"/>
		<path class="st0" d="M448.1,158.3v-3.9c0-6.4-1.6-9.2-5.1-9.2c-3,0-4.8,2.2-4.8,5.8c0,3.7,1.5,6.1,6.2,10.2l6.5,5.6
			c8.6,7.4,10.4,10.8,10.4,19.5c0,11.2-5.9,17-17.3,17c-11.5,0-16.8-5.7-16.8-18.1v-7.1h10.9v5.3c0,6.6,2.1,10.1,6.1,10.1
			c3.7,0,5.5-2.4,5.5-7.1c0-4.3-1-6.1-5.2-9.9l-6.2-5.4c-6.2-5.3-6.5-5.7-8.3-8.3c-1.9-3.1-2.7-6-2.7-10.9c0-11,5.4-16.5,15.9-16.5
			c5,0,9.1,1.4,11.8,4.1c2.8,2.8,4,6.8,4,13.3v5.5L448.1,158.3L448.1,158.3z"/>
		<path class="st0" d="M492.7,158.3v-3.9c0-6.4-1.6-9.2-5.1-9.2c-3,0-4.8,2.2-4.8,5.8c0,3.7,1.5,6.1,6.2,10.2l6.5,5.6
			c8.6,7.4,10.4,10.8,10.4,19.5c0,11.2-5.9,17-17.3,17c-11.5,0-16.8-5.7-16.8-18.1v-7.1h10.9v5.3c0,6.6,2.1,10.1,6.1,10.1
			c3.7,0,5.5-2.4,5.5-7.1c0-4.3-1-6.1-5.2-9.9l-6.2-5.4c-6.2-5.3-6.5-5.7-8.3-8.3c-1.9-3.1-2.7-6-2.7-10.9c0-11,5.4-16.5,15.9-16.5
			c5,0,9.1,1.4,11.8,4.1c2.8,2.8,4,6.8,4,13.3v5.5L492.7,158.3L492.7,158.3z"/>
	</g>
	<g>
		<path class="st0" d="M193.3,252.3v-21.6c0-1.9,0.1-3.8,0.1-9.4l-8.5,31.1h-4l-8.5-31c0.1,4.5,0.1,5.3,0.1,9.4v21.6h-4v-36.6h5.8
			l8.6,31.1l8.5-31.1h5.7v36.6L193.3,252.3L193.3,252.3z"/>
		<path class="st0" d="M223.3,241.7l-3.2,10.7H216l11.3-36.6h4.7l10.9,36.6h-4.5l-3-10.7H223.3z M233.8,237.2l-4.5-16.2l-4.9,16.2
			H233.8z"/>
		<path class="st0" d="M266.3,252.3h-4.1v-36.6h14c6.4,0,9.8,3.4,9.8,9.9c0,4.2-1.1,6.3-4.2,8.7c2.6,1.2,3.4,2.7,3.7,6.9l0.2,6.6
			c0.1,2.3,0.3,2.8,1.5,3.7v0.8h-4.9c-0.4-1.5-0.7-5.3-0.7-9.2c0-4.6-1.6-6.4-5.3-6.5h-9.8L266.3,252.3L266.3,252.3z M266.3,232.4
			h9.4c4.2,0,6.1-2,6.1-6.3c0-4.1-1.8-6-5.4-6h-10.1V232.4z"/>
		<path class="st0" d="M318.4,252.3h-4.1v-14.7l-11.3-21.9h4.7l8.6,17.6l8.7-17.6h4.8l-11.3,21.9L318.4,252.3L318.4,252.3z"/>
		<path class="st0" d="M352.9,247.8H368v4.5h-19.3v-36.6h4.1L352.9,247.8L352.9,247.8z"/>
		<path class="st0" d="M393.1,241.7l-3.2,10.7h-4.2l11.3-36.6h4.7l10.9,36.6h-4.5l-3-10.7H393.1z M403.6,237.2l-4.5-16.2l-4.9,16.2
			H403.6z"/>
		<path class="st0" d="M451.4,215.7h4v36.6h-4.6l-15.3-29.7v29.7h-4v-36.6h4.8l15.1,29.7L451.4,215.7L451.4,215.7z"/>
		<path class="st0" d="M477.1,215.7h12.2c7.7,0,12.7,7,12.7,17.9c0,6-1.5,11.3-4.3,14.7c-2.1,2.6-5,4-8.5,4h-12L477.1,215.7
			L477.1,215.7z M481.2,248h7.8c5.4,0,8.7-5.3,8.7-14.1c0-9.1-3.2-14.1-9-14.1h-7.6L481.2,248L481.2,248z"/>
	</g>
	<path class="st0" d="M86.2,196.3c0,0,2.5,4.8,2.8,7.7c0.3,3,0.9,12.6,0.6,13.9c-0.3,1.3,0.1,6.7,0.8,7.8l1.1-1l0.7-3l0.2-2.7
		c0,0,0.1-4.6-0.4-9.9c-0.5-6-1.7-13.1-3-15.3C87.9,192,87.1,198.2,86.2,196.3z"/>
	<path class="st0" d="M234.9,68.7c-0.2-0.3-0.3-0.6-0.5-0.9c-3.5-5.6-6.9-11.4-10.4-17c-1-1.7-1.9-1.9-2.8-0.1
		c-1.2,2.2-2.2,4.6-2.7,7c-0.9,4.2-0.9,8.6-3.1,12.5c-2.3,4.2-4.3,8.4-6.6,12.6c-1.4,2.3-2.7,4.8-5.1,6.3c-4,2.5-7.7,5.1-11.8,7.5
		c-7.5,4.3-14.7,8.8-19.7,16.1c-1.4,2.1-3.7,3.2-6.2,3.7c-8.7,1.8-17,4.6-24.7,9.1c-1.6,0.9-3.4,1.6-5.1,1.9
		c-8.4,1.1-16.9,1.8-24.9,5.3c0-0.8,0-1.3,0.1-1.9c1.7-8.1-0.4-15.2-4.9-22.1c-2.6-3.9-4.9-7.8-7-11.9c-0.8-1.4-1.1-3.1-1.2-4.7
		c-0.2-2.4-0.2-4.9-0.3-7.5c-5.7,2-5.3,7.7-8,11.7c0.1-2.6,0.1-5.1,0.2-8.2c-6,4.5-9.6,9.9-11.2,16.3c-1.1,4.3-3.3,7.3-6.2,10.1
		c-9.5,8.9-19.8,16.9-30.9,24c-8.3,5.1-16.4,10.8-24.6,16.3c-0.7,0.5-1.6,1-2,1.8c-2.5,4.6-5.8,8.9-7.1,13.8
		c-3.2,11.6-2.7,23.3,1.9,34.5c5.1,12.6,14,21.9,25.6,28.5c1.5,0.9,2.4,1.9,2.6,3.7c0.3,2.3,0.8,4.5,1,6.7c0.4,3.7,1.1,4.6,4.7,4.9
		c0,1,0.1,2,0.1,3.1c-0.4,0.1-0.8,0.1-1.1,0.2c-0.4,0.1-0.7,0.3-1.1,0.4c2,1.7,5.7,1.7,12.1,0.1c-2.1-0.3-4.3-0.6-6.5-1
		c-0.3-2-0.5-4-0.8-6c0.9-0.4,1.7-0.7,2.5-1c-0.1-0.3-0.1-0.5-0.2-0.8c-1.6,0.4-3.1,0.8-4.7,1.1c-0.9,0.2-1.8,0.2-2.8,0.3
		c-0.1-0.3-0.2-0.6-0.3-0.9c0.8-0.4,1.5-1,2.3-1.1c9.7-1.2,19.4-2.6,29.2-3.5c7.5-0.7,15-1,22.6-1c6.9,0,13.9,0.8,20.7,1.2
		c4.4,0.2,8.6,0.3,13,0.7c1.6,0.2,3.1,1.2,5,2c-3,2.7-1.7,5.3-1.4,8c-4.5,1.3-9,1.4-13.5,1.4c-18.9,0-37.8-0.1-56.8-0.2
		c-0.9,0-1.8,0.1-2.7,0.1c0.4,0.1,0.8,0.4,1.3,0.4c4.6,0.1,9.2,0.1,13.8,0.4c7.3,0.4,14.6,1.3,22,1.5c7.2,0.2,14.5-0.3,21.6-0.3
		c5.1,0,10.3,0.4,15.4,0.6c1.4,0,2.8,0,3.8-1.6c-1.2-0.2-2.2-0.3-3.2-0.5c0.1-0.6,0.1-1,0.2-1.4c1.3-4.6,1.6-9.2,0.3-13.9
		c-0.7-2.7,0-4.3,2.3-5.7c5.3-3.3,8.6-8.1,11.5-13.8c4.6-8.9,10.8-16.7,19.6-22c4.5-2.7,7.5-6.3,9.3-11.1c1.9-4.8,4-9.4,5.3-14.3
		c4.2-14.2,12.5-25.7,22.6-36c5.1-5.2,11-9.7,16.4-14.6c3.7-3.4,6.1-7.4,5.8-12.8c0-0.2,0-0.5,0.1-0.6c2-2,1.8-4.7,2-7.1
		c0.3-2.5,0.1-5.1,0.9-7.4c1.4-4.5,3.1-9,5.1-13.2C237.5,75,236.6,71.9,234.9,68.7z M163.4,124.2c0.2,0.2,0.4,0.4,0.7,0.6
		c0.6-1.2,1.1-2.4,1.7-3.7c0.2,0.1,0.5,0.2,0.7,0.2c-1.1,3.6-2.3,7.1-3.4,10.6c-0.3-0.1-0.7-0.1-1-0.2
		C162.6,129.3,163,126.7,163.4,124.2z M141.5,128.8c1.7,2.1,2.5,5.8,1.9,9C141.8,135.8,140.7,130.2,141.5,128.8z M134.9,137
		c0.1-0.1,0.2-0.1,0.3-0.2c0.5,0.8,1,1.5,1.4,2.2c0.3-1.8,0.7-3.6,1-5.4c0.2,0,0.4,0,0.7,0c0.6,1.3,1.3,2.6,1.9,3.9
		c0.2,0,0.4-0.1,0.5-0.1c-0.5-2.2-1-4.4-1.6-6.5c0.2-0.1,0.5-0.1,0.7-0.2c0.9,3.4,1.7,6.6,2.6,10c-0.1,0-0.2,0.1-0.3,0.1
		c-0.4-0.7-0.9-1.5-1.5-2.6c0,1.3,0.1,2.1,0.1,3.5c-1-2.1-1.8-3.8-2.5-5.3c-0.1,0.1-0.2,0.2-0.3,0.3c1,3.4,2.1,6.8,3.1,10.2
		c-0.1,0-0.2,0.1-0.2,0.1c-0.4-0.5-0.9-1.1-1.3-1.6c-0.1,0-0.2,0.1-0.4,0.1c0.3,1.6,0.5,3.2,0.8,4.8c-0.1,0-0.2,0.1-0.3,0.1
		c-0.6-0.8-1.1-1.6-1.7-2.4c-0.1,0-0.2,0.1-0.3,0.1c0.3,1.4,0.7,2.8,1,4.4c-0.6-0.3-1-0.6-1.6-0.9c0.4,1.8,0.7,3.4,1.2,5.4
		c-0.8-1-1.2-1.5-1.6-2c0.2,1.6,0.4,3.2,0.6,4.8c-0.2,0.1-0.4,0.2-0.7,0.2c-1.3-3.2-2.7-6.4-4-9.6c0.2-0.1,0.4-0.2,0.6-0.4
		c1.2,1.7,2.3,3.4,3.5,5c-1.4-3.6-2.9-7-4.3-10.6c-0.3-0.6-0.5-1.3-0.7-1.9c0.2-0.1,0.4-0.2,0.6-0.2c0.9,1.5,1.9,3,2.8,4.6
		c0.1-0.1,0.2-0.2,0.3-0.3c-0.8-2.5-1.5-5-2.3-7.5c0.2-0.1,0.4-0.2,0.6-0.3c0.7,1.2,1.4,2.5,2,3.7 M129.5,179.6
		c-1.2,0.7-2.4,1.6-3.7,2.2c-0.6,0.2-1.4-0.3-2.1-0.5c-0.9,3.2-4.6,4-7,5.9c-0.2,0-0.4,0.1-0.6,0.1c0.1-0.1,0.2-0.3,0.3-0.4
		c-1.8-3.7-1.5-7.2,0.4-10.8c0.2,2.5,0.4,4.9,0.6,7.4c1-2.8-0.6-5.8,1.5-8.8c0.4,1.6,0.8,2.9,1.2,4.2c0.1,0,0.2,0,0.3,0
		c0-1.5-0.1-2.9-0.1-4.6c1,0.3,1.9,0.6,2.9,0.9c0.3-0.8,0.7-1.6,1.1-2.5c0.4,0.2,0.9,0.3,1.3,0.5c0.1-0.1,0.2-0.2,0.2-0.2
		c0.1-2.5,0.1-2.5,2-3.8c0.3,1.2,0.6,2.4,0.9,3.5c0.1,0,0.2,0,0.3,0c0-0.3,0-0.7,0-1c0.2-4.4,0.3-8.6,0.5-13.4
		c0.7,1.5,1.2,2.7,1.7,3.9c0.2,0,0.3-0.1,0.5-0.1c-0.6-2.3-1.2-4.6-1.8-6.9c0.1-0.1,0.3-0.1,0.4-0.2c1,2.8,2.1,5.5,3.1,8.3
		c0.2-0.1,0.4-0.1,0.5-0.2c-1.5-4.5-3.1-9-4.6-13.5c0-0.2,0-0.3,0-0.5c0.1,0.1,0.3,0.1,0.4,0.2c6.8,8.4,7.1,22.5,0.5,28.7
		c-0.2-1.2-0.4-2.5-0.6-3.7c-0.3,0.1-0.5,0.1-0.8,0.1C128.9,176.2,129.2,177.9,129.5,179.6z M115.9,187.3c0,0.1,0,0.2,0,0.2
		c-0.1,0-0.2-0.1-0.3-0.1C115.7,187.4,115.8,187.4,115.9,187.3z M91.2,106.7c0.1,0,0.2,0.1,0.3,0.2c-0.1,0.1-0.2,0.3-0.3,0.3
		c-0.1,0-0.2-0.1-0.3-0.2C91,106.9,91,106.8,91.2,106.7z M90.9,109.1c1,1.2,1.9,2.3,2.9,3.4c0.1-0.1,0.2-0.2,0.4-0.3
		c-0.6-1.1-1.2-2.2-1.8-3.3c-0.2-0.2-0.4-0.5-0.6-0.7c0-0.2-0.1-0.4-0.1-0.6c0.2,0.1,0.4,0.2,0.5,0.3c0.2,0.2,0.4,0.4,0.5,0.7
		c0.5,0.6,1.1,1.1,1.6,1.7c0.2-0.1,0.3-0.2,0.5-0.3c-1.3-3.1-4.2-5.7-2.4-9.8c1.6,1.8,3.1,3.5,4.7,5.2c1-4.3-3.4-6.6-3.4-10.9
		c1.9,3.2,4.3,5.8,5.1,8.8c1.5,5,5.5,8.1,8,12.4c0.1,0.2,0.2,0.4,0.2,0.6c0.1,0.1,0.2,0.3,0.2,0.4c-0.2,0-0.3,0-0.5-0.1
		c-0.4-0.2-0.7-0.4-1.1-0.6c0.8,3.2,5.2,5.4,2.4,9.8c0.1,0.3,0.3,0.9,0.5,1.4c-0.1,0.1-0.2,0.2-0.3,0.2c-0.7-0.7-1.5-1.5-2.2-2.2
		c-0.1,0.1-0.2,0.2-0.3,0.2c0.7,1.7,1.5,3.4,2.2,5.1c-0.4,0-0.7,0-1.1,0c1.6,3.4,1.6,6.5-1.1,9.9c-0.5-0.8-1-1.5-1.5-2.2
		c-0.2,0.2-0.5,0.3-0.7,0.5c0.7,1.6,1.4,3.1,2.1,4.7l-0.2,0.4c0,0,0,0-0.1,0c-0.4-0.2-0.7-0.4-1.3-0.7c0,1.2-0.1,2.1-0.1,3.2
		c-0.4-0.1-0.8-0.1-1.3-0.2c0.5,1.7,1.2,3.3-0.6,4.6c-1.9-1.8-2.2-4-1.1-6.1c0.2-0.4,0-1.1-0.2-1.6c-0.5-1.4-1.6-2.7-0.9-4.5
		c0.2-0.6-0.6-1.7-1.2-2.5c-1.3-1.8-1.9-3.7-1.6-5.9c0.2-1.4-0.4-3.1-1.1-4.5c-1.1-2.6-2.6-5-3.9-7.5c-0.2-0.3-0.3-0.5-0.5-0.8
		c0-0.2-0.1-0.3-0.1-0.5c0.1,0.1,0.3,0.1,0.4,0.2c0.2,0.2,0.4,0.5,0.6,0.7s0.5,0.4,0.7,0.6C93,115.2,89.9,113,90.9,109.1z
		 M80.8,107.1c1.7-4.1,3.2-8.3,4.9-12.6c0.4,0.2,0.9,0.3,1,0.4c0.6,2.3,1.7,4.6,1.4,6.7c-0.8,6.9,0.9,13.3,3.3,19.5
		c2.1,5.3,4.4,10.7,6.2,16.1c1.4,4,2.5,7.9,1.4,12.3c-0.3,1.2,0.1,2.6,0.1,3.9c0,3.1-2.3,6.1-5.2,6.9c-0.4,0.1-1-0.3-1.6-0.5
		c-0.1,0.3-0.3,0.9-0.6,1.6c-0.5-0.5-0.9-1-1.6-1.7c0.1,1,0.2,1.7,0.3,2.6c-0.8,0.2-1.5,0.4-2.4,0.7c-0.5-0.7-0.9-1.3-1.4-2.1
		c-0.2,0.9-0.3,1.6-0.6,2.8c-1-2.3-1.8-4.1-2.5-5.8c-0.1-0.2,0.2-0.5,0.4-0.7l0,0c-0.7-4.1,0.4-7.8,1.3-11.7
		c1.8-7.2-0.1-14.2-1.9-21.1c-0.9-3.6-1.9-7.1-2.9-10.7C79.8,111.5,79.9,109.3,80.8,107.1z M85.2,165.2c-1.3-0.6-2-1-2.8-1.4
		c-0.2,0.9-0.5,1.6-0.7,2.4c-3-2.6-2.8-4.5,1-7.9C83.5,160.6,84.2,162.7,85.2,165.2z M78.6,121.6c0.9,2.3,1.9,4.6,2.8,6.8
		c-1-0.8-2-1.6-2.9-2.4c0.2,0.6,0.3,1.3,0.7,1.7c3.7,4.2,4.5,9.2,4.8,14.5c0.1,1.1,0.2,2.3,0.1,3.5c-0.8-1.1-1.5-2.2-2.3-3.2
		c-0.1,0.1-0.2,0.1-0.3,0.2c0.7,1.7,1.5,3.4,2.2,5.1c-0.2,0-0.4,0-0.6,0c-0.2,0.7-0.6,1.4-0.6,2c0.1,2.2-0.2,4.2-1.7,6.4
		c-0.4-1-0.8-1.6-1-2.3c-0.8-2.3-1.5-4.6-2.2-6.8c-0.6-1.9-3.3-2.5-4.6-1.1c-1.6,1.7-3,0.5-4.3,0c-0.4,0.5-0.7,1.3-1.1,1.4
		c-0.5,0.1-1.6-0.3-1.7-0.6c-0.3-1-0.1-2.1-0.2-3.2c0.2-0.1,0.5-0.1,0.7-0.2c0.5,0.5,0.9,1,1.4,1.5c0.1-0.1,0.2-0.2,0.3-0.3
		c-0.2-1-0.5-2-0.7-2.9c0.1-0.1,0.2-0.2,0.3-0.2c0.7,0.7,1.4,1.5,2.1,2.2c0.1-0.1,0.2-0.2,0.3-0.3c-0.5-1.1-1-2.3-1.5-3.6
		c0.6,0,1.1,0,1.7,0c0.2-0.9,0.3-1.6,0.5-2.4c0.7,0.2,1.5,0.3,2.3,0.5c-0.2-0.7-0.3-1.3-0.4-1.8c-0.1-0.1-0.1-0.3-0.2-0.4
		c0.1,0.1,0.2,0.2,0.3,0.3c0.7,0.4,1.3,0.8,2,1.3c0.1-0.1,0.2-0.2,0.4-0.2c-0.7-1.4-1.4-2.7-2.1-4.2c0.7,0.1,1.3,0.2,1.6,0.3
		c0.7-1.3,1.2-2.4,1.9-3.7c1,0.7,1.8,1.2,2.5,1.7c0.1-0.1,0.1-0.2,0.2-0.3c-0.9-1.9-1.9-3.7-2.8-5.5c0.2-0.1,0.4-0.3,0.5-0.4
		c0.4,0.2,0.9,0.4,1.3,0.7c-0.1-1.3-0.2-2.6-0.4-3.9C78,121.7,78.3,121.7,78.6,121.6z M73,170c-0.4,0.7-1.6,0.9-2.5,1.3
		c-0.1-0.2-0.2-0.3-0.4-0.5c0.5-1.1,1-2.2,1.6-3.4c0.4-0.1,0.8-0.2,1.6-0.3C73.2,168.2,73.5,169.3,73,170z M71.7,167.4
		c-1.9-0.1-2.5-1.5-2.8-3.1c-0.2-0.8-0.1-1.7-0.2-2.6c0.6,0.3,1.4,0.5,1.6,0.9C70.9,164.3,71.2,165.8,71.7,167.4z M71.1,155.2
		c2.1,1.3,2.4,2.8,1,5C71.7,158.6,71.4,156.9,71.1,155.2z M73.3,149.2c0.3,2.1,0.5,3.9,0.7,5.8C71.7,153.4,71.5,151.8,73.3,149.2z
		 M74,169.3c-0.1-2.3-0.1-4.2-0.2-6.2C76.3,164.9,76.4,167.1,74,169.3z M64.7,140c-0.6,0.6-1.1,1.4-1.6,2.1c-1.3,2-2.6,4.1-4,5.9
		c-1,1.3-1.7,1.1-2.4-0.6c-0.5,0.8-0.9,1.6-1.5,2.6c-0.2-0.7-0.4-1.2-0.6-2c-0.5,0.8-0.9,1.5-1.4,2.2c-0.9-3.9-0.6-6.5,1.1-8.7
		c0.3,0.8,0.5,1.6,0.9,2.9c0.3-1.2,0.4-1.8,0.6-2.4c0.2-0.5,0.7-1.3,0.8-1.2c1.6,0.6,1.9-0.9,2.8-1.4c1.3-0.8,2.8-1.5,4.3-2.1
		c1.3-0.6,2.7-1,4-1.5c0.2,0.2,0.4,0.4,0.6,0.6C67.1,137.6,65.9,138.8,64.7,140z M34.3,227.4c0.2,0.8,0.4,1.5,0.8,2.6
		c-0.6-0.5-0.9-0.7-1.2-1c-2.5-2.1-5.1-4-7.5-6.1c-2.3-2.1-4.3-4.5-6.4-6.8c0.6-0.2,1.1-0.4,1.7-0.6c-1.6-1.2-3.2-2.1-4.4-3.4
		c-1.2-1.3-1.9-2.9-2.9-4.4c0.2-0.1,0.3-0.2,0.5-0.3c0.9,0.9,1.7,1.9,2.6,2.8c0.2-0.1,0.3-0.2,0.5-0.3c-0.9-2.2-1.9-4.4-2.8-6.5
		c0-0.2,0-0.3,0-0.5c0.1,0.1,0.3,0.1,0.4,0.2c1.1,1.2,2.2,2.4,3.3,3.7c0.8-2.2,0.4-3.4-1.8-4.6c-1.7-0.8-3.4-1.5-5-2.2
		c-2.1-0.9-2.7-2.4-2-4.8c0.5,0.2,0.9,0.3,1.8,0.6c-0.5-0.8-0.8-1.4-1.2-1.8c-1.8-2-2.1-4.4-1.8-6.9c0.3-2.3,0.4-4.5,0.6-6.7
		c0.1-1.8-0.7-3.9,1.1-5.3c-1-2.5,0.8-4.5,1.3-6.6c0-0.2,0.2-0.3,0.3-0.5c1.4,1.1,1.7,3.4,0.8,4.8c-0.1,0.1-0.2,0.2-0.2,0.3
		c-0.2,2.1-0.4,4.2-0.1,6.4c0.4-1.3,0.9-2.5,1.3-3.8c0.6-2,1.1-4.1,1.7-6c2.1-7.5,6.8-13.3,12.9-17.9s12.4-9.1,18.4-13.8
		c7.6-5.8,15.1-11.8,22.7-17.7c1.8-1.4,3.6-2.8,5.2-4.4c1-0.9,1.7-1,2.4-0.1c-1.2,3.9-2.3,7.7-3.5,11.5c-0.2,0.8-0.4,1.9-1.8,1.2
		c-0.1,0.1-0.1,0.2-0.2,0.2c0.7,2.4-1.1,3.6-2.6,4.4c-3,1.7-6.1,2.9-9.2,4.5c-4.3,2.4-8.6,4.7-12.5,7.4c-1.8,1.3-3.5,3-5.3,4.2
		c-1.8,1.2-2.3,3-1.4,5c0.6,1.5,0.9,3-1.5,3.4c-0.4-0.8-0.8-1.7-1.2-2.7c-0.1,1.7-0.3,3.1-0.4,4.5c-0.2,0-0.4,0-0.6,0.1
		c-0.3-1-0.6-2-1-3.1c-2.6,2.1-4,4.9-5.4,7.7c-1,1.9-1.7,4.1-3.1,5.5c-3.5,3.9-4.3,8.4-4.8,13.3c-0.3,3-0.7,6-0.8,9
		c-0.1,1.7,0.3,3.4,0.6,5c0.2,1.3,0.7,2.5,0.9,3.9c-3.4-1.8-6.9-3.5-9.2-6.4c-1.1-1.4-0.8-3.8-1-5.7s-0.1-4-0.4-5.9
		c-0.8,1.2,0,3-1.9,3.9c0.7,1.3,2,2.7,0.5,4.5c-0.2,0.2,0.5,1.1,0.6,1.6c0.2,1.1,0.2,2.2,0.3,3.3c-0.2,0.1-0.5,0.2-0.7,0.2
		c2.8,1.4,5.4,2.9,8.1,4.3c1.2,0.6,2.4,1.4,3.6,1.9c0.6,0.3,1.4,0.3,1.9,0.3c0.9,2.1,1.6,4.5,2.8,6.4c4.2,6.7,8.5,13.4,12.9,20.1
		c0.4,0.6,0.8,1.2,1.3,2C38.2,232.3,37,228.6,34.3,227.4z M50.4,151.8c-0.3-0.5-0.6-0.9-0.9-1.4c-1.1,3.9-4.9,3.5-7.6,5.6
		c-0.1-2.2-1.1-4.1,0.8-5.7c0.3,0.7,0.5,1.2,0.8,2c0.6-1.5,1.2-2.8,1.9-4.4c0.5,0.5,0.8,0.9,1.2,1.4c0.8-1.4,1.6-2.8,2.3-4.1
		c0.2,0.1,0.4,0.2,0.6,0.3c0,0.5,0,1,0.1,2c0.8-1.6,1.5-2.7,2.1-3.9C51.3,146.4,52.9,149.3,50.4,151.8z M228.2,92.1
		c-1.4,5.5-2,11.3-3,17.3c-5-3.4-9.9-6.2-15.1-7.3c-0.3,1.8-0.5,3.3-0.7,4.8c1.5-0.2,2.1-3.2,4.7-1.8c-2.5,2.6-4.9,5-7.2,7.4
		c0.2,0.2,0.4,0.4,0.6,0.6c2.7-2.4,4.8-5.7,9-7c-4.3,5-8.2,9.6-12.2,14.2c0,0-10.1,11.5-12.5,18h0.5c0,0,6.9-11.8,12.5-17.5
		c0.5-0.4,1-0.8,1.5-1.3c2.7-2.9,5.2-5.8,8-8.6c1.1-1.1,2.6-1.8,3.9-2.7c0.4-0.1,0.7-0.1,1.1-0.2c-0.2,0.2-0.4,0.4-0.7,0.6
		c-1.5,2.1-3.1,4.2-4.6,6.2c0.1,0.1,0.3,0.2,0.4,0.3c2.1-2.1,4.2-4.1,6.2-6.1c0.2,0.2,0.4,0.3,0.5,0.5c-0.3,0.9-0.6,1.9-1,3.1
		c0.8-0.5,1.3-0.8,1.8-1.1c0.1-0.1,0.2-0.2,0.4-0.2c0,0.2-0.1,0.3-0.1,0.5c-0.4,0.6-0.7,1.3-1.2,1.9c-9,11.2-18.7,21.7-29.2,31.6
		c-3.8,3.6-6.2,7.7-7.6,13.1c-2.2,8-5.2,15.8-8.5,23.6c-2.9,6.6-8.3,10.4-15.7,10.7c-0.6,0-1.3-0.3-2.3-0.5c-1,1.5-2.9,0.7-4.9,0.6
		c-3.7-0.2-7.4,0.6-11.2,1.1c-3,0.4-5.9,1.3-8.9,1.7c-3.7,0.6-6.1,2.5-7.6,5.8c0.1,0.1,0.2,0.3,0.4,0.4c1.3-1,2.6-2,3.9-3
		c0.2,0.2,0.3,0.3,0.5,0.5c-0.3,0.6-0.6,1.2-1,2.3c2.3-1.5,4.3-2.7,6.2-4c0.1,0.1,0.2,0.3,0.3,0.4c-0.2,0.4-0.5,0.9-0.7,1.3
		c0.2,0.1,0.3,0.2,0.5,0.3c3.4-3.3,7.8-3.5,12.4-4.7c-1.6,1.4-2.9,2.6-4.3,3.7c0,0.1,0.1,0.1,0.1,0.2c1.6-0.7,3.3-1.3,4.9-2
		c0.1,0.2,0.2,0.4,0.3,0.5c-1.7,1.9-3.4,3.8-5,5.7c4.6-2.1,7.4-6.4,12-8.2c0.1,0.2,0.2,0.3,0.4,0.5c-1.2,1.1-2.4,2.1-3.6,3.2
		c0.1,0.1,0.2,0.2,0.3,0.4c2.2-1.1,4.4-2.2,6.5-3.2c0.1,0.2,0.3,0.4,0.4,0.6c-3.4,3.2-7.5,5.6-9.7,9.9c0.1,0.1,0.3,0.3,0.4,0.4
		c1.6-1.8,3.1-3.6,4.7-5.2c0.2,0.1,0.3,0.2,0.5,0.3c0,0.2,0,0.5-0.1,0.7c-4.1,7-8.2,14.1-12.3,21.2c-2.7,4.6-6.6,7.1-12.1,8.2
		c0.2-1.5,0.3-2.9,0.5-4.2c-0.2,0-0.4,0.1-0.4,0.1c-0.7,3.6-1.9,3.7-5.1,3c-0.7-0.1-1.3-0.3-2-0.4c-1.5-0.2-2-1-1.8-2.5
		c0.3-2.2,0.7-4.4,0.6-6.5c-0.4,1.6-0.8,3.2-1.1,4.8c-0.1,0.6-0.1,1.3-0.5,1.8c-0.4,0.5-1.1,1.2-1.6,1.2c-0.4,0-0.9-0.9-1.2-1.5
		c-0.2-0.4-0.2-0.9-0.3-2c-0.2,1.3-0.3,1.9-0.5,2.6c-3.5,0.4-9.8-1-10.4-2.6c-0.8,0.6-1.5,1.3-2.2,1.9c4.5,1,8.9,2,13.4,2.9
		s9,1.8,13.7,2.7c-3.8,2.8-7.6-0.4-11.6,0.8c4.1,1.1,7.8,2.1,11.6,3.2c0,0.2-0.1,0.4-0.1,0.6c-0.2,0.1-0.5,0.3-0.7,0.3
		c-16.7-4.2-33.6-3.8-50.5-2.3c-9.7,0.8-19.4,1.8-29.1,2.7c-1.3,0.1-2.7,0-4.1-0.5c1-0.2,1.9-0.4,2.9-0.6c0-0.2,0-0.3-0.1-0.5
		c-2.3,0.2-4.6,0.3-6.8,0.7c-2.8,0.5-3.8-0.1-4.2-3c5.6-1.2,11.3-2.3,16.8-3.5c-2.4-0.8-4.9-1.5-7.3-2.3c-0.1,0.5-0.2,0.9-0.3,1.5
		c-2.3-1-4.5-1.9-6.5-2.8c0.1-0.2,0.2-0.5,0.3-0.7c1.8,0.6,3.7,1.1,5.4,1.7c0.1-0.1,0.2-0.3,0.2-0.4c-0.4-0.4-0.7-0.8-1.1-1.1
		c-2.9-2.3-5.6-4.7-8.6-6.7c-3.4-2.4-5.7-5.3-7.5-9c-1.4-2.9-3.2-5.5-4.7-8.3c-0.4-0.7,0.4-1.9,0.1-2.8c-2.2-7.8-0.8-15.3,1.2-22.9
		c1.8-6.6,5.4-11.8,11-15.6c8.2-5.5,17.4-8.8,27.1-10.8c1.8-0.4,3.6-0.7,5.5-1.1c-0.1,1.9,0.5,4.2-0.4,5.1c-1.7,2.1-1.2,4.5-2,6.5
		c-0.1,0.4-0.1,0.8-0.1,1.2c-0.5,0-0.9-0.1-1.8-0.2c0.7,2,1.2,3.9,1.9,5.5c0.7,1.8,0.8,3.2-1.2,4.2c-0.3,0.2-0.7,0.6-0.7,0.8
		c-0.1,2-1.2,1.9-2.7,1.2c-0.4,1-0.8,2-1.4,3.3c1.2-0.3,2-0.5,2.8-0.8c3.3-1.3,6.6-2.7,9.9-4.1c0.3-0.1,0.6-0.2,0.7-0.4
		c4.6-4.4,10.7-4.7,16.1-6.6c0.4-0.1,0.8-0.3,0.9-0.6c0.7-1.1,1.4-1.9,2.9-1.3c0.3,0.1,0.9-0.5,1.5-0.8c0.1,0.6,0.1,1.3,0.2,2.1
		c0.9-1.7,0.4-4.1,2.9-4.9c0,1.2,0.1,2.2,0.1,3.3c0.1,0,0.2,0,0.3,0.1c1-3.1,1.9-6,2.9-9.1c0.2,0,0.4,0.1,0.7,0.1
		c0.2,1.3,0.4,2.7,0.6,4c0.2,0,0.4,0,0.6,0c0-1.4-0.2-2.8-0.1-4.1c0.2-1.5,0.4-3,1.1-4.3c1.4-2.9,1.5-3.2-0.7-5.3c0,0-0.1,0-0.1-0.1
		l0.3-0.2l0,0c0.6,0,1.2,0.1,2.1,0.1c0,0.7,0,1.6,0.1,2.4c0,0.8,0,1.5,0.1,2.3c0.1,0,0.2,0,0.2,0c0.5-3.2,1.1-6.3,1.5-9.5
		c0.3-2.1,1.3-3.5,3.1-4.6c3.9-2.3,8.1-3,12.4-3.6c1.8-0.3,3.7-0.5,5.4-0.7c0.1,0.2,0.2,0.4,0.1,0.4c-4.4,5.3-4.1,11.9-4.4,18.2
		c-0.3,5.1-0.4,10.3-0.9,15.3c-0.1,1.5-0.9,2.9-1.5,4.3c-1.2,2.3-2.9,3.1-5.5,2.8c0,1.9-1.6,1.6-2.7,1.9c-6.9,1.5-13.7,3.6-19.7,7.4
		c-4.1,2.7-7,6.2-9.5,10.4c-1.9,3.1-1.4,5.6,1.1,8.3c0.4-1.7-1.5-3.7,0.7-4.9c0.7,2,1.4,4,2.1,5.9c0.1,0,0.2,0,0.3-0.1
		c-0.4-2.5-0.7-4.9-1.1-7.7c0.6,0.6,0.9,1,1.4,1.6c1.2-2-1.6-4.6,1-6.3c0.4,0.5,0.8,1.1,1.2,1.7c0.4-1.5,0.7-2.8,1-4.2
		c0.1,0,0.3,0,0.4,0c0.4,1.2,0.8,2.3,1.3,4c0.5-2.6-1.3-5.1,1.6-6.3c0.4-0.2,1.1,0.4,1.8,0.6c0.3-0.5,0.7-1.2,1.3-2.2
		c0.3,0.5,0.4,0.9,0.9,1.8c0.7-3.3,3.1-4,5.4-5c0.4,2.3,0.7,4.4,1.1,6.5c0.1,0,0.1,0,0.2,0c0.2-2.3,0.4-4.6,0.6-6.8
		c0.3-0.1,0.6-0.2,1-0.2c0.5,0.9,1.4,1.8,1.5,2.8c0.5,6.7-0.6,9.2-5.3,12.1c-0.1-3.8-0.2-7.3-0.3-10.9c-0.2,0-0.5,0-0.7-0.1
		c-0.1,0.5-0.3,1-0.3,1.5c0.2,2.5,0.3,4.9,0.6,7.4c0.2,1.8-0.1,3.2-1.7,4.4c-1.8,1.3-3.4,2.8-5.1,4.3c-0.3-0.4-0.6-0.8-1-1.3
		c-0.2,1.2-0.3,2.2-0.5,3.2c-0.2-0.1-0.3-0.2-0.5-0.2c-1.8,2.5-3.7,4.9-4,8.5c-0.7-0.8-1.1-1.3-1.7-2c0.1,0.7,0,1.1,0.1,1.5
		c1.5,3.9,0.1,7.5-0.3,11.3c-0.2,2.2-2,4.6,0,6.8c1.6,0.2,3.2,0.6,4.8,0.6c2.1,0,4.2-0.3,6.2-0.5c0.2-1.5,0.5-3,0.7-4.5
		s0.5-2.9,0.3-4.5c-0.7,2.1-1.5,4.1-2.2,6.1c-0.2,0-0.4-0.1-0.6-0.1c0.2-2.1,0.4-4.2,0.7-6.3c-0.6-0.2-1.2-0.3-2-0.6
		c0.3,0.8,0.6,1.4,0.7,1.8c-2.1,2.2-0.8,4.9-1.7,7.2c-2.9-1.3-5-4.8-4-7.6c0.4-1.2,0-2.2,0.4-3.2c0.5-1.1,0.5-2.4,1.2-3.4
		c0.4-0.6,1.5-0.7,2.3-1c0.1-0.1,0.1-0.1,0.2-0.2c0.2-1.5,0.3-2.9,0.5-4.4c0.1-0.5,0.6-1,0.7-1.5c2.3-7.8,8.5-10.9,15.4-13.1
		c5.3-1.7,10.9-2.8,16.3-4.2c3.8-1,6.9-2.7,8.3-6.5c0.1-0.2,0.1-0.4,0.2-0.6c0-0.1,0-0.3-0.1-0.9c-1,1-1.9,1.7-2.4,2.6
		c-1.7,2.7-4.1,4.1-7.2,4.5c-4,0.5-7.8,1.2-11.7,1.9c-0.1-0.2-0.1-0.3-0.2-0.5c0.5-0.2,1-0.5,1.5-0.7c10.3-3.8,16.8-10.8,19.6-21.6
		c2-8,4.4-16,6.5-24c2.1-7.5,6.2-13.7,12.2-18.6c0.6-0.5,1.5-0.8,2.8-1.6c-1.5,5.6-2.9,10.6-4.3,15.5c0.2,0,0.3-0.1,0.5-0.1
		c0.5,1.5,0.9,3.1,1.4,4.6c0.1,0,0.3,0,0.4,0c-0.1-2.4-0.1-4.8-0.2-7.5c0.7,0.4,1,0.5,1.4,0.8c0.5-2.5,0.9-4.9,1.3-7.4
		c0.2,0,0.5,0.1,0.7,0.1c-0.4,3.7-0.7,7.4-1.1,11.1c-0.1,0-0.2,0.1-0.4,0.1c-0.2-0.4-0.4-0.8-0.4-0.8c-0.8,2.7-1.6,5.7-2.5,8.9
		c-1-0.4-1.6-0.6-2.3-0.8c-0.2,2.7-0.4,5.2-0.5,8c-1.1,0-2.1,0.1-3.3,0.1c0.2,1.5,0.3,2.7,0.5,4.3c4.9-3.3,5.3-9.1,8.8-13.2
		c0.3,0.4,0.5,0.7,0.9,1.2c0.1-0.3,0.1-0.5,0.2-0.7c0-1.9-0.2-3.9,1.6-5.2c0.4-0.3,0.4-1,0.5-1.5c0.4-1.5,0.8-3,1.3-5
		c0.5,0.8,0.6,1.1,0.9,1.6c3.2-7.6,6.2-14.8,9.2-22.2c0.1,0,0.3,0,0.4,0.1c0.1,1,0.1,1.9,0.2,2.9c0.1,0,0.1,0,0.2,0
		c0.2-1.3,0.1-2.8,0.7-3.9c0.8-1.5,1.8-3,3.2-4c9.2-6.6,18.4-13.2,27.7-19.7c0.5-0.4,1-0.7,1.6-0.9c0.2-0.1,0.6,0.3,1.1,0.5
		c0.4-1.6,0.7-3.4,1.1-5.1c0.1,0,0.3,0,0.4,0c0.3,0.7,0.7,1.4,1.1,2.3c0.1-2.3,0.3-4.3,0.4-6.2c0.2-0.1,0.4-0.1,0.7-0.2
		c0.5,1.3,0.9,2.7,1.4,4c-0.6-4,1.3-7.3,2-11.1c0.4,0.3,0.7,0.6,1.1,1c0.1-1.7,0.2-3.2,0.3-4.7c0.1-0.1,0.2-0.2,0.3-0.3
		c0.2,0.4,0.5,0.9,0.7,1.3c0.1,0,0.3-0.1,0.4-0.1c0.8-5.2,1.6-10.4,2.5-15.9c3.7,5.9,7.2,11.6,10.8,17.2c-2.2,0.1-3.8,0.1-5.7,0.2
		c0.4,1.2,0.6,1.9,0.9,2.6c0.7-0.3,1.3-0.6,2.2-1.1c-0.3,1.7-0.6,3.2-0.9,4.7c0.1,0.1,0.2,0.1,0.3,0.2c0.6-1.1,1.2-2.2,2-3.7
		c0,1.4,0.1,2.4,0.1,3.6c0.5-0.4,0.8-0.6,1.3-1C231.6,81.3,229.5,86.7,228.2,92.1z M113.2,176.5c2.1,2.1,1.9,9.2-0.6,11.4
		C112.9,183.9,111.7,180.2,113.2,176.5z"/>
	<path class="st0" d="M176.1,172.9c0,0-2.2,5.8-0.4,9.5l0.4-0.3c0,0-1.1-4.3,0.7-9L176.1,172.9z"/>
</g>
</svg>
