<?xml version="1.0" encoding="utf-8"?>
<!-- Generator: Adobe Illustrator 23.0.1, SVG Export Plug-In . SVG Version: 6.00 Build 0)  -->
<svg version="1.1" id="Layer_1" xmlns="http://www.w3.org/2000/svg" xmlns:xlink="http://www.w3.org/1999/xlink" x="0px" y="0px"
	 viewBox="0 0 512 304" style="enable-background:new 0 0 512 304;" xml:space="preserve">
<style type="text/css">
	.st0{opacity:0.4;}
	.st1{fill:#F6F6F8;}
</style>
<g>
	<g class="st0">
		<polyline class="st1" points="402.3,53.2 394.6,54.7 389.4,57.2 385.5,59 378.7,59.9 367.4,63.5 358.8,66.6 351.4,72.7 
			346.3,78.3 344.8,83.2 341.7,87.6 337.8,92.2 336.3,97.5 332,103.4 332.6,107 333.5,107 335.7,106.4 336.3,107.3 336.9,107.9 
			339,109.1 339,112.2 336.9,112.2 332.6,114.6 335.4,116.4 336.6,117.6 338.7,122 339.6,135.8 337.5,139.5 335.4,141 332.3,140.1 
			330.5,140.4 328.4,144.7 325,149.7 325.3,151.5 323.2,152.4 320.2,150.6 315,152.4 303.7,156.3 300.7,156.3 298.3,154.2 
			294.9,153.6 282.7,154.5 270.2,156.9 259.4,161.6 254.6,164.9 254.6,167.7 256.1,172.6 258.5,178.2 260,191.7 259.4,199.1 
			257.3,201.8 250.8,208.6 240.4,218.7 234.9,224 237.8,232.7 377.7,209.9 379.2,211.1 382.3,213.3 385.3,215.7 389.2,219 
			389.5,223 391.4,226 394.1,227.5 395,229.9 395.3,233.6 398.6,236 404.2,237.8 406,240.5 432.4,246.1 433.1,246.1 435.2,246.7 
			435.8,248.8 439.2,250.4 439.2,244.8 440.1,242.1 441,241.8 439.5,239 439.5,235.4 440.7,231.8 437.7,228.4 444.1,223.5 
			441.1,221 428.6,166.3 421.2,136.8 420.9,136.8 419.1,135.3 416.6,133.8 415.4,133.5 414.8,133.5 414.5,135 413.6,136.2 
			413,136.2 411.5,135.6 410.6,133.8 410.6,131.4 411.5,130.2 413,128.6 413,128 411.8,125.9 410.3,121.6 408.1,117.2 410,116 
			409.7,114.5 409.7,111.2 407.8,106.2 406.6,96.7 407.5,95.2 407.8,93.4 408.1,91.2 407.5,89.7 406.3,87.9 406,85.5 406,84 
			406.3,84 408.1,82.7 408.7,81.8 408.7,80.6 407.5,79.1 406.3,74.8 406.3,72.9 405.7,72.3 405.1,72.9 404.2,74.2 403.6,74.5 
			403.6,73.2 402.1,68.9 400.8,63.3 400.8,60 401.4,58.2 402.9,58.2 403.8,57.9 402.3,53.2 		"/>
		<polyline class="st1" points="495.3,212.1 489.7,216.8 483,221.7 479,223.9 475.7,224.8 469.2,224.8 465.3,226.9 461.9,229.6 
			458.3,229.6 456.5,231.1 454.6,233.9 452.2,236.3 449.5,238.4 446.8,239.9 444.9,240.9 443.1,242.7 442.5,245.4 443,247.1 
			443.9,247.1 444.8,249.2 449.4,249.8 451.2,249.2 453.3,246.8 453.9,245.6 456.4,243.2 460,243.2 458.2,245.6 457.3,247.7 
			458.8,247.7 460,246.8 465.9,243.2 477.2,237.3 481.1,234.3 491.5,227.2 499.5,220.7 506,215.8 499.2,217.3 494.4,221.6 
			487.6,224.4 486.1,222.9 492.6,219.8 497.4,213.1 495.3,212.1 		"/>
	</g>
	<g>
		<g>
			<path class="st1" d="M6.6,139.5c-0.4-0.4-0.5-0.8-0.5-1.4v-3.3c0-0.9,0.2-1.7,0.6-2.2c0.3-0.6,0.6-0.9,0.6-0.9l31-42.6H8.7
				c-0.5,0-1-0.2-1.4-0.5c-0.3-0.4-0.5-0.9-0.5-1.4v-3c0-0.6,0.2-1.1,0.5-1.4C7.7,82.1,8.2,82,8.7,82H46c0.6,0,1.1,0.2,1.4,0.5
				c0.4,0.4,0.5,0.8,0.5,1.4v3.3c0,1-0.4,1.9-1.1,2.9L16.2,133h30.7c0.6,0,1.1,0.2,1.4,0.5c0.4,0.4,0.5,0.8,0.5,1.4v3.1
				c0,0.5-0.2,1-0.6,1.4c-0.4,0.4-0.8,0.5-1.4,0.5H8C7.4,140,7,139.8,6.6,139.5z"/>
			<path class="st1" d="M60,139.5c-0.3-0.4-0.5-0.8-0.5-1.4V84c0-0.6,0.2-1.1,0.5-1.4c0.3-0.4,0.8-0.5,1.3-0.5h34.1
				c0.6,0,1.1,0.2,1.4,0.5c0.4,0.4,0.5,0.8,0.5,1.4v2.9c0,0.5-0.2,1-0.5,1.3c-0.4,0.3-0.8,0.5-1.4,0.5H67.1v18.6h26.4
				c0.6,0,1.1,0.2,1.4,0.5c0.4,0.4,0.5,0.8,0.5,1.4v2.8c0,0.5-0.2,1-0.5,1.4c-0.4,0.4-0.8,0.5-1.4,0.5H67.1v19.1H96
				c0.6,0,1.1,0.2,1.4,0.5c0.4,0.4,0.5,0.8,0.5,1.4v2.9c0,0.5-0.2,1-0.6,1.4c-0.4,0.4-0.8,0.5-1.4,0.5H61.3
				C60.8,140,60.3,139.8,60,139.5z"/>
			<path class="st1" d="M110.1,139.5c-0.3-0.4-0.5-0.8-0.5-1.4V84c0-0.6,0.2-1.1,0.5-1.4c0.3-0.4,0.8-0.5,1.3-0.5h20.9
				c6.3,0,11.1,1.5,14.7,4.5c3.5,3,5.4,7.4,5.4,13.1c0,5.8-1.8,10.1-5.4,13c-3.5,2.9-8.5,4.4-14.7,4.4h-14.9V138
				c0,0.5-0.2,1-0.5,1.4c-0.4,0.4-0.8,0.5-1.4,0.5h-4.1C110.8,140,110.4,139.8,110.1,139.5z M132,110.4c8.3,0,12.5-3.6,12.5-10.8
				c0-3.5-1-6.3-3.1-8.1c-2-1.9-5.2-2.8-9.4-2.8h-14.5v21.7H132z"/>
			<path class="st1" d="M163.2,139.5c-0.3-0.4-0.5-0.8-0.5-1.4V84c0-0.6,0.2-1.1,0.5-1.4c0.3-0.4,0.8-0.5,1.3-0.5h3.9
				c0.6,0,1.1,0.2,1.4,0.5c0.4,0.4,0.5,0.8,0.5,1.4v23h28.8V84c0-0.6,0.2-1.1,0.5-1.4c0.4-0.4,0.8-0.5,1.4-0.5h3.9
				c0.6,0,1.1,0.2,1.4,0.5c0.4,0.4,0.5,0.8,0.5,1.4V138c0,0.5-0.2,1-0.6,1.4c-0.4,0.4-0.8,0.5-1.4,0.5H201c-0.5,0-1-0.2-1.4-0.5
				c-0.4-0.4-0.5-0.8-0.5-1.4v-23.9h-28.8V138c0,0.5-0.2,1-0.6,1.4c-0.4,0.4-0.8,0.5-1.4,0.5h-3.7
				C163.9,140,163.5,139.8,163.2,139.5z"/>
			<path class="st1" d="M237.6,139.5c-0.4-0.4-0.5-0.8-0.5-1.4v-19.6l-19.9-33.7c-0.2-0.3-0.2-0.7-0.2-1.1s0.2-0.8,0.5-1.1
				s0.7-0.5,1.1-0.5h3.9c1,0,1.7,0.5,2.1,1.4l16.4,27.1l16.3-27.1c0.5-0.9,1.3-1.4,2.1-1.4h3.9c0.4,0,0.8,0.2,1.2,0.5
				c0.4,0.3,0.5,0.7,0.5,1.1c0,0.3-0.1,0.6-0.3,1.1L245,118.4V138c0,0.5-0.2,1-0.5,1.4c-0.4,0.4-0.8,0.5-1.4,0.5h-3.9
				C238.4,140,238,139.8,237.6,139.5z"/>
			<path class="st1" d="M275.5,139.5c-0.3-0.4-0.5-0.8-0.5-1.4V84c0-0.6,0.2-1.1,0.5-1.4c0.3-0.4,0.8-0.5,1.3-0.5H297
				c6.3,0,11.2,1.5,14.8,4.4c3.5,2.9,5.4,7.3,5.4,12.8c0,4.2-1,7.7-3.1,10.3c-2.1,2.7-5.1,4.5-8.8,5.7l12.7,22.1
				c0.2,0.3,0.2,0.6,0.2,0.9c0,0.4-0.2,0.8-0.5,1.1c-0.3,0.3-0.7,0.5-1.1,0.5h-3.6c-0.8,0-1.5-0.2-1.9-0.6c-0.5-0.4-0.9-0.9-1.3-1.6
				l-12.1-21.2h-14.8V138c0,0.5-0.2,1-0.6,1.4s-0.8,0.5-1.4,0.5h-3.9C276.3,140,275.8,139.8,275.5,139.5z M296.7,109.7
				c8.3,0,12.5-3.5,12.5-10.5c0-7-4.1-10.5-12.5-10.5h-14v21H296.7z"/>
		</g>
		<g>
			<path class="st1" d="M24,213.4c-0.4-0.4-0.6-0.8-0.6-1.4v-45.6H8c-0.5,0-1-0.2-1.4-0.6c-0.4-0.4-0.6-0.9-0.6-1.5v-6.2
				c0-0.6,0.2-1.1,0.5-1.5c0.4-0.4,0.8-0.6,1.4-0.6h42.4c0.6,0,1.1,0.2,1.5,0.6c0.4,0.4,0.6,0.9,0.6,1.5v6.2c0,0.6-0.2,1.1-0.6,1.5
				c-0.4,0.4-0.9,0.6-1.5,0.6H35.1v45.6c0,0.5-0.2,1-0.5,1.4c-0.4,0.4-0.8,0.6-1.4,0.6h-7.8C24.8,214,24.4,213.8,24,213.4z"/>
			<path class="st1" d="M61.4,213.4c-0.4-0.4-0.6-0.8-0.6-1.4v-53.9c0-0.6,0.2-1.1,0.5-1.5c0.4-0.4,0.8-0.6,1.4-0.6h36.5
				c0.6,0,1.1,0.2,1.5,0.6c0.4,0.4,0.6,0.9,0.6,1.5v5.6c0,0.6-0.2,1.1-0.6,1.4c-0.4,0.4-0.9,0.5-1.5,0.5H72.1v14.6h25.4
				c0.6,0,1.1,0.2,1.5,0.6c0.4,0.4,0.6,0.9,0.6,1.5v5.3c0,0.6-0.2,1.1-0.6,1.4c-0.4,0.4-0.9,0.5-1.5,0.5H72.1v15h27.8
				c0.6,0,1.1,0.2,1.5,0.5c0.4,0.4,0.6,0.8,0.6,1.4v5.7c0,0.6-0.2,1.1-0.6,1.4c-0.4,0.4-0.9,0.5-1.5,0.5H62.8
				C62.2,214,61.8,213.8,61.4,213.4z"/>
			<path class="st1" d="M107.6,213.5c-0.3-0.3-0.5-0.7-0.5-1.2l0.2-0.7l19.9-53.4c0.5-1.4,1.5-2,2.9-2h9.1c1.4,0,2.4,0.7,2.9,2
				l19.9,53.4l0.2,0.7c0,0.5-0.2,0.9-0.5,1.2c-0.4,0.3-0.8,0.5-1.2,0.5h-7.4c-1.1,0-1.9-0.5-2.4-1.6l-3.8-10h-24.5l-3.8,10
				c-0.4,1-1.2,1.6-2.4,1.6h-7.4C108.3,214,107.9,213.8,107.6,213.5z M125.3,192.7H144l-9.4-25.5L125.3,192.7z"/>
			<path class="st1" d="M173.4,208.9c-4.1-3.9-6.4-9.4-6.7-16.6c-0.1-1.5-0.1-3.9-0.1-7.3c0-3.4,0-5.9,0.1-7.5
				c0.3-7.1,2.5-12.5,6.7-16.5c4.1-3.9,10.1-6,17.6-6c5,0,9.2,0.8,12.8,2.5c3.6,1.7,6.5,3.9,8.5,6.9c2,2.9,3,6.2,3.2,9.8v0.2
				c0,0.4-0.2,0.8-0.5,1.1c-0.4,0.3-0.8,0.5-1.2,0.5h-8c-0.7,0-1.1-0.1-1.5-0.5c-0.3-0.3-0.6-0.8-0.8-1.6c-0.8-3.4-2.2-5.9-4.3-7.3
				c-2-1.4-4.8-2.1-8.1-2.1c-7.9,0-12,4.4-12.3,13.2c-0.1,1.5-0.1,3.7-0.1,6.9s0,5.5,0.1,7.1c0.3,8.8,4.4,13.2,12.3,13.2
				c3.3,0,6-0.7,8.1-2.1s3.5-3.8,4.3-7.3c0.2-0.8,0.5-1.3,0.8-1.6c0.3-0.3,0.8-0.5,1.5-0.5h8c0.5,0,0.9,0.2,1.3,0.5
				c0.4,0.3,0.5,0.7,0.5,1.2c-0.1,3.6-1.2,7-3.2,9.8c-2,2.9-4.9,5.3-8.5,6.9c-3.6,1.7-7.9,2.5-12.8,2.5
				C183.4,214.8,177.6,212.8,173.4,208.9z"/>
			<path class="st1" d="M226,213.4c-0.4-0.4-0.6-0.8-0.6-1.4v-53.9c0-0.6,0.2-1.1,0.5-1.5c0.4-0.4,0.8-0.6,1.4-0.6h7.6
				c0.6,0,1.1,0.2,1.5,0.6c0.4,0.4,0.6,0.9,0.6,1.5v21.3h24.2v-21.3c0-0.6,0.2-1.1,0.6-1.5c0.4-0.4,0.8-0.6,1.4-0.6h7.7
				c0.6,0,1.1,0.2,1.4,0.6c0.4,0.4,0.5,0.9,0.5,1.5v53.9c0,0.5-0.2,1-0.5,1.4c-0.4,0.4-0.8,0.6-1.4,0.6h-7.7c-0.5,0-1-0.2-1.4-0.6
				c-0.4-0.4-0.6-0.8-0.6-1.4v-22.1H237v22.1c0,0.5-0.2,1-0.6,1.4s-0.9,0.6-1.5,0.6h-7.6C226.9,214,226.4,213.8,226,213.4z"/>
			<path class="st1" d="M290.6,209.1c-4.2-3.8-6.4-9.5-6.7-17c-0.1-1.6-0.1-3.9-0.1-7.1s0-5.6,0.1-7.1c0.2-7.4,2.5-12.9,6.8-16.9
				c4.3-3.9,10.1-5.9,17.5-5.9c7.3,0,13.1,1.9,17.4,5.9c4.3,3.9,6.6,9.5,6.9,16.9c0.1,3.2,0.2,5.6,0.2,7.1s-0.1,3.8-0.2,7.1
				c-0.2,7.5-2.4,13.1-6.7,17c-4.2,3.8-10.1,5.8-17.6,5.8C300.7,214.8,294.8,212.8,290.6,209.1z M317.1,201.8
				c2.1-2.2,3.3-5.6,3.4-10.2c0.1-3.3,0.2-5.6,0.2-6.7c0-1.3-0.1-3.5-0.2-6.7c-0.2-4.5-1.3-7.9-3.5-10.1s-5.2-3.3-8.7-3.3
				c-3.6,0-6.6,1.1-8.8,3.3c-2.2,2.2-3.3,5.7-3.4,10.1c-0.1,1.6-0.1,3.8-0.1,6.7c0,2.8,0,5.1,0.1,6.7c0.1,4.5,1.2,7.9,3.4,10.1
				c2.2,2.2,5.2,3.3,8.8,3.3C311.9,205.2,314.8,204.1,317.1,201.8z"/>
			<path class="st1" d="M349.1,209.1c-4.1-3.8-6.2-9.6-6.2-17.3v-33.7c0-0.6,0.2-1.1,0.5-1.5c0.4-0.4,0.8-0.6,1.4-0.6h7.6
				c0.6,0,1.1,0.2,1.5,0.6c0.4,0.4,0.6,0.9,0.6,1.5v33.7c0,4.3,1,7.7,3.1,9.8c2,2.2,5.1,3.3,8.8,3.3c3.8,0,6.8-1.1,8.8-3.3
				c2-2.2,3.1-5.5,3.1-9.8v-33.7c0-0.6,0.2-1.1,0.6-1.5c0.4-0.4,0.9-0.6,1.5-0.6h7.6c0.6,0,1.1,0.2,1.4,0.6c0.4,0.4,0.5,0.9,0.5,1.5
				v33.7c0,7.7-2,13.5-6.2,17.3c-4.1,3.8-9.9,5.8-17.4,5.8C359.1,214.8,353.3,212.8,349.1,209.1z"/>
			<path class="st1" d="M415.9,213.4c-0.4-0.4-0.6-0.8-0.6-1.4v-45.6H400c-0.5,0-1-0.2-1.4-0.6c-0.4-0.4-0.6-0.9-0.6-1.5v-6.2
				c0-0.6,0.2-1.1,0.5-1.5c0.4-0.4,0.8-0.6,1.4-0.6h42.4c0.6,0,1.1,0.2,1.5,0.6c0.4,0.4,0.6,0.9,0.6,1.5v6.2c0,0.6-0.2,1.1-0.6,1.5
				c-0.4,0.4-0.9,0.6-1.5,0.6h-15.3v45.6c0,0.5-0.2,1-0.5,1.4c-0.4,0.4-0.8,0.6-1.4,0.6h-7.8C416.7,214,416.2,213.8,415.9,213.4z"/>
		</g>
		<g>
			<path class="st1" d="M44.6,250.4c-0.1-0.1-0.2-0.3-0.2-0.4l0.1-0.3l7.5-19.5c0.2-0.4,0.5-0.7,1-0.7h1.9c0.5,0,0.8,0.2,1,0.7
				l7.5,19.5l0.1,0.3c0,0.2-0.1,0.3-0.2,0.4c-0.1,0.1-0.3,0.2-0.4,0.2h-1.4c-0.2,0-0.4-0.1-0.5-0.2c-0.1-0.1-0.2-0.2-0.3-0.3
				l-1.7-4.3H49l-1.6,4.3c-0.2,0.3-0.4,0.5-0.7,0.5h-1.4C44.9,250.6,44.7,250.5,44.6,250.4z M49.8,243.2h8.3l-4.1-10.8L49.8,243.2z"
				/>
			<path class="st1" d="M73.4,250.4c-0.1-0.1-0.2-0.3-0.2-0.5v-17.8h-5.8c-0.2,0-0.4-0.1-0.5-0.2c-0.1-0.1-0.2-0.3-0.2-0.5v-1.2
				c0-0.2,0.1-0.4,0.2-0.5c0.1-0.1,0.3-0.2,0.5-0.2h14.5c0.2,0,0.4,0.1,0.5,0.2c0.1,0.1,0.2,0.3,0.2,0.5v1.2c0,0.2-0.1,0.4-0.2,0.5
				c-0.1,0.1-0.3,0.2-0.5,0.2h-5.8v17.8c0,0.2-0.1,0.4-0.2,0.5c-0.1,0.1-0.3,0.2-0.5,0.2H74C73.6,250.6,73.5,250.5,73.4,250.4z"/>
			<path class="st1" d="M95,250.4c-0.1-0.1-0.2-0.3-0.2-0.5v-17.8H89c-0.2,0-0.4-0.1-0.5-0.2c-0.1-0.1-0.2-0.3-0.2-0.5v-1.2
				c0-0.2,0.1-0.4,0.2-0.5c0.1-0.1,0.3-0.2,0.5-0.2h14.5c0.2,0,0.4,0.1,0.5,0.2c0.1,0.1,0.2,0.3,0.2,0.5v1.2c0,0.2-0.1,0.4-0.2,0.5
				c-0.1,0.1-0.3,0.2-0.5,0.2h-5.8v17.8c0,0.2-0.1,0.4-0.2,0.5c-0.1,0.1-0.3,0.2-0.5,0.2h-1.4C95.3,250.6,95.1,250.5,95,250.4z"/>
			<path class="st1" d="M112.8,248.7c-1.4-1.4-2.2-3.4-2.2-6.2c0-0.6,0-1.4,0-2.5s0-1.9,0-2.5c0.1-2.7,0.8-4.8,2.3-6.2
				c1.5-1.4,3.4-2.1,6-2.1c2.5,0,4.4,0.7,6,2.1c1.4,1.4,2.2,3.4,2.3,6.2c0,1.2,0.1,2,0.1,2.5c0,0.5,0,1.3-0.1,2.5
				c-0.1,2.7-0.8,4.9-2.2,6.2c-1.4,1.4-3.4,2-6.1,2C116.2,250.9,114.2,250.2,112.8,248.7z M122.7,246.8c1-1,1.5-2.4,1.5-4.4
				c0-1.2,0.1-2,0.1-2.4s0-1.2-0.1-2.4c-0.1-2-0.6-3.5-1.5-4.4c-1-1-2.2-1.5-3.8-1.5c-1.6,0-2.9,0.5-3.8,1.5c-0.9,1-1.5,2.5-1.5,4.4
				c0,0.6,0,1.4,0,2.4c0,1,0,1.8,0,2.4c0.1,2,0.6,3.5,1.5,4.4c1,1,2.2,1.4,3.8,1.4C120.4,248.3,121.6,247.8,122.7,246.8z"/>
			<path class="st1" d="M136,250.4c-0.1-0.1-0.2-0.3-0.2-0.5v-19.6c0-0.2,0.1-0.4,0.2-0.5c0.1-0.1,0.3-0.2,0.5-0.2h7.4
				c2.3,0,4,0.5,5.4,1.6c1.3,1.1,1.9,2.6,1.9,4.7c0,1.5-0.4,2.7-1.1,3.7c-0.8,1-1.8,1.6-3.2,2l4.7,8c0.1,0.1,0.1,0.2,0.1,0.3
				c0,0.2-0.1,0.3-0.2,0.4c-0.1,0.1-0.3,0.2-0.4,0.2h-1.3c-0.3,0-0.5-0.1-0.7-0.2s-0.3-0.3-0.5-0.6L144,242h-5.4v7.8
				c0,0.2-0.1,0.4-0.2,0.5c-0.1,0.1-0.3,0.2-0.5,0.2h-1.4C136.3,250.6,136.1,250.5,136,250.4z M143.7,239.5c3,0,4.5-1.3,4.5-3.8
				c0-2.5-1.5-3.8-4.5-3.8h-5.1v7.7H143.7z"/>
			<path class="st1" d="M159.9,250.4c-0.1-0.1-0.2-0.3-0.2-0.5v-19.6c0-0.2,0.1-0.4,0.2-0.5c0.1-0.1,0.3-0.2,0.5-0.2h1.3
				c0.2,0,0.3,0,0.4,0.1c0.1,0.1,0.2,0.2,0.3,0.3l10.1,15.6v-15.3c0-0.2,0.1-0.4,0.2-0.5c0.1-0.1,0.3-0.2,0.5-0.2h1.3
				c0.2,0,0.4,0.1,0.5,0.2c0.1,0.1,0.2,0.3,0.2,0.5v19.6c0,0.2-0.1,0.4-0.2,0.5c-0.1,0.1-0.3,0.2-0.5,0.2h-1.3
				c-0.3,0-0.6-0.1-0.7-0.4l-10.1-15.4v15.1c0,0.2-0.1,0.4-0.2,0.5c-0.1,0.1-0.3,0.2-0.5,0.2h-1.4
				C160.2,250.6,160,250.5,159.9,250.4z"/>
			<path class="st1" d="M184.9,250.4c-0.1-0.1-0.2-0.3-0.2-0.5v-19.6c0-0.2,0.1-0.4,0.2-0.5c0.1-0.1,0.3-0.2,0.5-0.2h12.3
				c0.2,0,0.4,0.1,0.5,0.2c0.1,0.1,0.2,0.3,0.2,0.5v1.1c0,0.2-0.1,0.4-0.2,0.5c-0.1,0.1-0.3,0.2-0.5,0.2h-10.2v6.7h9.6
				c0.2,0,0.4,0.1,0.5,0.2c0.1,0.1,0.2,0.3,0.2,0.5v1c0,0.2-0.1,0.4-0.2,0.5c-0.1,0.1-0.3,0.2-0.5,0.2h-9.6v7h10.5
				c0.2,0,0.4,0.1,0.5,0.2c0.1,0.1,0.2,0.3,0.2,0.5v1.1c0,0.2-0.1,0.4-0.2,0.5c-0.1,0.1-0.3,0.2-0.5,0.2h-12.6
				C185.2,250.6,185,250.5,184.9,250.4z"/>
			<path class="st1" d="M213,250.4c-0.1-0.1-0.2-0.3-0.2-0.5v-7.2l-7.3-12.2c-0.1-0.1-0.1-0.2-0.1-0.4c0-0.2,0.1-0.3,0.2-0.4
				c0.1-0.1,0.3-0.2,0.4-0.2h1.4c0.4,0,0.6,0.2,0.8,0.5l6,9.8l6-9.8c0.2-0.3,0.5-0.5,0.8-0.5h1.4c0.2,0,0.3,0.1,0.4,0.2
				c0.1,0.1,0.2,0.3,0.2,0.4s0,0.2-0.1,0.4l-7.3,12.2v7.2c0,0.2-0.1,0.4-0.2,0.5c-0.1,0.1-0.3,0.2-0.5,0.2h-1.4
				C213.2,250.6,213.1,250.5,213,250.4z"/>
			<path class="st1" d="M243.1,248.6c-1.4-1.4-2.2-3.4-2.3-5.9c0-0.6,0-1.5,0-2.8s0-2.2,0-2.8c0.1-2.4,0.8-4.3,2.3-5.9
				c1.4-1.4,3.4-2.1,6.1-2.1c1.7,0,3.2,0.3,4.4,1c1.2,0.6,2.1,1.4,2.7,2.3c0.6,0.9,0.9,1.7,1,2.5v0.1c0,0.2-0.1,0.3-0.2,0.4
				c-0.1,0.1-0.3,0.2-0.4,0.2H255c-0.2,0-0.3,0-0.4-0.1s-0.2-0.2-0.3-0.4c-0.3-0.9-0.9-1.7-1.8-2.4c-0.9-0.6-2-1-3.5-1
				c-1.7,0-3,0.5-3.9,1.4c-1,0.9-1.5,2.3-1.5,4.2c0,0.6,0,1.5,0,2.6c0,1.2,0,2.1,0,2.6c0.1,1.9,0.6,3.3,1.5,4.3
				c1,0.9,2.3,1.4,3.9,1.4c1.7,0,3-0.5,4-1.4c1-0.9,1.5-2.3,1.5-4.2v-1.3h-4.7c-0.2,0-0.4-0.1-0.5-0.2c-0.1-0.1-0.2-0.3-0.2-0.5
				v-0.9c0-0.2,0.1-0.4,0.2-0.5c0.1-0.1,0.3-0.2,0.5-0.2h6.8c0.2,0,0.4,0.1,0.5,0.2c0.1,0.1,0.2,0.3,0.2,0.5v2.8c0,1.6-0.3,3-1,4.2
				s-1.6,2.2-2.9,2.8c-1.3,0.7-2.8,1-4.5,1C246.5,250.9,244.5,250.1,243.1,248.6z"/>
			<path class="st1" d="M266.3,250.4c-0.1-0.1-0.2-0.3-0.2-0.5v-19.6c0-0.2,0.1-0.4,0.2-0.5c0.1-0.1,0.3-0.2,0.5-0.2h12.3
				c0.2,0,0.4,0.1,0.5,0.2c0.1,0.1,0.2,0.3,0.2,0.5v1.1c0,0.2-0.1,0.4-0.2,0.5c-0.1,0.1-0.3,0.2-0.5,0.2h-10.2v6.7h9.6
				c0.2,0,0.4,0.1,0.5,0.2c0.1,0.1,0.2,0.3,0.2,0.5v1c0,0.2-0.1,0.4-0.2,0.5c-0.1,0.1-0.3,0.2-0.5,0.2h-9.6v7h10.5
				c0.2,0,0.4,0.1,0.5,0.2c0.1,0.1,0.2,0.3,0.2,0.5v1.1c0,0.2-0.1,0.4-0.2,0.5c-0.1,0.1-0.3,0.2-0.5,0.2h-12.6
				C266.6,250.6,266.4,250.5,266.3,250.4z"/>
			<path class="st1" d="M288.8,250.4c-0.1-0.1-0.2-0.3-0.2-0.5v-19.6c0-0.2,0.1-0.4,0.2-0.5c0.1-0.1,0.3-0.2,0.5-0.2h1.3
				c0.2,0,0.3,0,0.4,0.1c0.1,0.1,0.2,0.2,0.3,0.3l10.1,15.6v-15.3c0-0.2,0.1-0.4,0.2-0.5c0.1-0.1,0.3-0.2,0.5-0.2h1.3
				c0.2,0,0.4,0.1,0.5,0.2s0.2,0.3,0.2,0.5v19.6c0,0.2-0.1,0.4-0.2,0.5c-0.1,0.1-0.3,0.2-0.5,0.2h-1.3c-0.3,0-0.6-0.1-0.7-0.4
				l-10.1-15.4v15.1c0,0.2-0.1,0.4-0.2,0.5c-0.1,0.1-0.3,0.2-0.5,0.2h-1.4C289.1,250.6,288.9,250.5,288.8,250.4z"/>
			<path class="st1" d="M313.8,250.4c-0.1-0.1-0.2-0.3-0.2-0.5v-19.6c0-0.2,0.1-0.4,0.2-0.5c0.1-0.1,0.3-0.2,0.5-0.2h12.3
				c0.2,0,0.4,0.1,0.5,0.2c0.1,0.1,0.2,0.3,0.2,0.5v1.1c0,0.2-0.1,0.4-0.2,0.5c-0.1,0.1-0.3,0.2-0.5,0.2h-10.2v6.7h9.6
				c0.2,0,0.4,0.1,0.5,0.2c0.1,0.1,0.2,0.3,0.2,0.5v1c0,0.2-0.1,0.4-0.2,0.5c-0.1,0.1-0.3,0.2-0.5,0.2h-9.6v7H327
				c0.2,0,0.4,0.1,0.5,0.2s0.2,0.3,0.2,0.5v1.1c0,0.2-0.1,0.4-0.2,0.5c-0.1,0.1-0.3,0.2-0.5,0.2h-12.6
				C314.1,250.6,313.9,250.5,313.8,250.4z"/>
			<path class="st1" d="M336.2,250.4c-0.1-0.1-0.2-0.3-0.2-0.5v-19.6c0-0.2,0.1-0.4,0.2-0.5c0.1-0.1,0.3-0.2,0.5-0.2h7.4
				c2.3,0,4,0.5,5.4,1.6s1.9,2.6,1.9,4.7c0,1.5-0.4,2.7-1.1,3.7c-0.8,1-1.8,1.6-3.2,2l4.7,8c0.1,0.1,0.1,0.2,0.1,0.3
				c0,0.2-0.1,0.3-0.2,0.4c-0.1,0.1-0.3,0.2-0.4,0.2h-1.3c-0.3,0-0.5-0.1-0.7-0.2s-0.3-0.3-0.5-0.6l-4.4-7.7h-5.4v7.8
				c0,0.2-0.1,0.4-0.2,0.5c-0.1,0.1-0.3,0.2-0.5,0.2h-1.4C336.5,250.6,336.4,250.5,336.2,250.4z M343.9,239.5c3,0,4.5-1.3,4.5-3.8
				c0-2.5-1.5-3.8-4.5-3.8h-5.1v7.7H343.9z"/>
			<path class="st1" d="M358.1,250.4c-0.1-0.1-0.2-0.3-0.2-0.4l0.1-0.3l7.5-19.5c0.2-0.4,0.5-0.7,1-0.7h1.9c0.5,0,0.8,0.2,1,0.7
				l7.5,19.5l0.1,0.3c0,0.2-0.1,0.3-0.2,0.4s-0.3,0.2-0.4,0.2H375c-0.2,0-0.4-0.1-0.5-0.2c-0.1-0.1-0.2-0.2-0.3-0.3l-1.7-4.3h-10
				l-1.6,4.3c-0.2,0.3-0.4,0.5-0.7,0.5h-1.4C358.3,250.6,358.2,250.5,358.1,250.4z M363.2,243.2h8.3l-4.1-10.8L363.2,243.2z"/>
			<path class="st1" d="M384.4,250.4c-0.1-0.1-0.2-0.3-0.2-0.5v-19.7c0-0.2,0.1-0.4,0.2-0.5c0.1-0.1,0.3-0.2,0.5-0.2h1.5
				c0.2,0,0.4,0.1,0.5,0.2c0.1,0.1,0.2,0.3,0.2,0.5v17.8h10c0.2,0,0.4,0.1,0.5,0.2s0.2,0.3,0.2,0.5v1.1c0,0.2-0.1,0.4-0.2,0.5
				c-0.1,0.1-0.3,0.2-0.5,0.2h-12.2C384.7,250.6,384.5,250.5,384.4,250.4z"/>
		</g>
		<g>
			<path class="st1" d="M18.7,236.1h-1.1c-1.1,0-2,0.4-2.5,0.9c-0.5,0.5-0.8,1.3-0.8,2.4v1h-1.7c-0.1,0-0.2,0-0.3,0.1
				c-0.1,0.1-0.1,0.2-0.1,0.3v0.6c0,0.1,0,0.2,0.1,0.3c0.1,0.1,0.2,0.1,0.3,0.1h1.7v8.3c0,0.1,0,0.2,0.1,0.3
				c0.1,0.1,0.1,0.1,0.2,0.1c0.1,0,0.1,0,0.2-0.1h0.8c0.1,0,0.2,0,0.3-0.1c0.1-0.1,0.1-0.2,0.1-0.3v-8.3h2.5c0.1,0,0.2,0,0.3-0.1
				c0.1-0.1,0.1-0.2,0.1-0.3v-0.6c0-0.1,0-0.2-0.1-0.3c-0.1-0.1-0.2-0.1-0.3-0.1H16v-0.9c0-0.6,0.2-1.1,0.4-1.4
				c0.2-0.3,0.6-0.5,1.2-0.5h1.1c0.1,0,0.2,0,0.3-0.1c0.1-0.1,0.1-0.2,0.1-0.3v-0.6c0-0.1,0-0.2-0.1-0.3
				C18.9,236.1,18.8,236.1,18.7,236.1"/>
			<path class="st1" d="M24.3,249.3c-0.9,0-1.5-0.3-2-0.8c-0.5-0.6-0.8-1.3-0.8-2.3v-0.7v-0.7c0-1,0.3-1.8,0.8-2.3
				c0.5-0.5,1.2-0.8,2-0.8c0.9,0,1.5,0.2,2,0.8c0.5,0.6,0.8,1.3,0.8,2.3c0,0.1,0,0.3,0,0.7c0,0.3,0,0.6,0,0.7c0,1-0.3,1.8-0.8,2.3
				C25.9,249,25.2,249.3,24.3,249.3 M24.5,240.2c-1.4,0-2.5,0.4-3.3,1.2c-0.8,0.8-1.2,1.9-1.3,3.2v0.8v0.8c0,1.3,0.4,2.4,1.2,3.2
				c0.6,0.8,1.6,1.2,3,1.2c0.2,0,0.3,0,0.5,0c1.4,0,2.5-0.4,3.3-1.2c0.7-0.8,1.1-1.9,1.2-3.2c0-0.2,0-0.6,0-0.8c0-0.2,0-0.5,0-0.8
				c-0.1-1.3-0.5-2.4-1.3-3.2C27,240.6,25.9,240.2,24.5,240.2"/>
			<path class="st1" d="M36.2,240.4h-0.8c-1.3,0-2.2,0.4-2.7,1.3v-0.9c0-0.1-0.1-0.2-0.1-0.3c0-0.1-0.2-0.1-0.3-0.1h-0.8
				c-0.1,0-0.2,0-0.3,0.1c-0.1,0.1-0.1,0.2-0.1,0.3v9.3c0,0.1,0,0.2,0.1,0.3c0.1,0.1,0.1,0.1,0.2,0.1c0,0,0.1,0,0.1,0h0.9
				c0.1,0,0.2,0,0.3-0.1c0.1-0.1,0.1-0.2,0.1-0.3v-5.9c0-0.7,0.2-1.3,0.6-1.7c0.4-0.4,1-0.6,1.7-0.6h1.1c0.1,0,0.2,0,0.3-0.1
				c0.1-0.1,0.1-0.2,0.1-0.3v-0.7c0-0.1,0-0.2-0.1-0.3C36.5,240.4,36.3,240.4,36.2,240.4"/>
		</g>
	</g>
</g>
</svg>
