<?xml version="1.0" encoding="utf-8"?>
<svg version="1.1" id="Layer_1" xmlns="http://www.w3.org/2000/svg" xmlns:xlink="http://www.w3.org/1999/xlink" x="0px" y="0px"
	 viewBox="0 0 512 304" style="enable-background:new 0 0 512 304;" xml:space="preserve">
<style type="text/css">
	.st0{fill-rule:evenodd;clip-rule:evenodd;fill:#F6F6F8;}
</style>
<g>
	<path class="st0" d="M6,206.3h28.8l3.5-19h25.3l3.5,19H97l-3.3-16.5c5.3,12,16.7,18.3,34.3,18.3h3.3c23.3,0,35.8-10.9,37.8-29.9
		v28.1h69.7v-17.8c5.9,13.4,17.8,19.6,35.8,19.6h4.2c25.7,0,38.9-13.4,38.9-38.8V97.9h-30.3v72.7c0,6.2-2.2,9.4-8.8,9.4h-3.7
		c-6.8,0-8.8-3.3-8.8-9.4V97.7h-30.3v79h-36v-79h-30.5v27c-2-18.1-13.4-28.8-36.3-28.8H128c-26.2,0-38,13.4-38,38.1V172L74.8,97.7
		H28.2L6,206.3z M42.9,163.3l7.3-40.4h1.5l7.5,40.4H42.9z M129.5,180c-6.8,0-9.2-3.3-9.2-9.8V134c0-6.7,2.4-9.8,9.2-9.8h3.3
		c6.8,0,9.2,3.3,9.2,9.8v7.6h27.3v20.7H142v7.6c0,6.7-2.4,9.8-9.2,9.8h-3.3V180L129.5,180z"/>
	<path class="st0" d="M351.4,97h-11.9v47.7h7.5v-19.3h4.6c8,0,12.6-4.6,12.6-12.6v-4.1C364.2,100.9,360,97,351.4,97L351.4,97z
		 M356.7,112.8c0,5.2-2,7.4-5.8,7.4h-4v-18h3.8c4,0,6,2.2,6,6.9V112.8L356.7,112.8z M376.6,139v-15.8H389v-5.9h-12.4v-14.5h13.5V97
		h-21v47.7h21.4v-5.9h-13.9V139z M408,145.8c8.8,0,13.9-5,13.9-14.3v-21.2c0-9.3-5.1-14.3-13.9-14.3c-8.8,0-13.9,5-13.9,14.3v21.2
		C394.3,140.8,399.2,145.8,408,145.8z M408,140.1c-4,0-6.2-2.8-6.2-7.8v-22.8c0-5,2.2-7.8,6.2-7.8c4,0,6.2,2.8,6.2,7.8v22.8
		C414.4,137.3,412.2,140.1,408,140.1L408,140.1z M440.5,97h-11.9v47.7h7.5v-19.3h4.6c8,0,12.6-4.6,12.6-12.6v-4.1
		C453.1,100.9,448.9,97,440.5,97L440.5,97z M445.6,112.8c0,5.2-2,7.4-5.7,7.4h-4v-18h3.8c4,0,6,2.2,6,6.9V112.8L445.6,112.8z
		 M458.2,144.7h20.1v-6.3h-12.8V97H458v47.7H458.2z M490.7,139v-15.8h12.4v-5.9h-12.4v-14.5h13.5V97h-21v47.7h21.5v-5.9h-13.9
		L490.7,139L490.7,139z M352.9,157.8h-12.5v48.4h7.7v-19.6h4.8c8.4,0,13.2-4.6,13.2-12.8v-4.2C366.3,161.7,361.9,157.8,352.9,157.8z
		 M358.4,173.6c0,5.3-2,7.5-6.2,7.5H348v-18.3h4c4.2,0,6.2,2.2,6.2,7v3.7H358.4z M384.8,207.3c9.2,0,14.5-5.1,14.5-14.5v-21.6
		c0-9.5-5.3-14.5-14.5-14.5c-9.2,0-14.5,5.1-14.5,14.5v21.6C370,202,375.3,207.3,384.8,207.3z M384.8,201.3c-4.2,0-6.4-2.9-6.4-7.9
		v-23.1c0-5.1,2.2-7.9,6.4-7.9s6.6,2.9,6.6,7.9v23.1C391.4,198.5,389,201.3,384.8,201.3z M408.8,206.2h10.1l4.2-31.5
		c0.4-2.9,0.7-6.6,0.7-9h0.4c0.2,2.4,0.4,6.2,0.7,9l4.2,31.5h10.1l6.2-48.4h-7.5l-3.5,32.8c-0.2,2.8-0.5,5.6-0.7,8.4h-0.2
		c-0.2-2.4-0.7-5.5-0.9-8.1l-4.4-33h-8.4l-4.4,33c-0.2,2.6-0.4,5.5-0.9,8.1h-0.2c0-3.1-0.2-5.7-0.7-8.4l-3.5-32.8h-7.5L408.8,206.2
		L408.8,206.2z M458.5,200.2v-16.3h13V178h-13v-14.7h14.1v-5.9h-22v48.4H473v-5.9h-14.5L458.5,200.2L458.5,200.2z M497.9,206.2h8.1
		l-7.7-21.8c4.2-1.5,6.4-5.5,6.4-11.4v-2.6c0-7.9-4-12.3-13.6-12.3h-12.3v48.4h7.7v-20.2h4.6L497.9,206.2L497.9,206.2z M486.4,180.9
		V163h4.2c4.4,0,6.2,2.2,6.2,7.3v2.9c0,5.3-1.8,7.7-6.2,7.7H486.4z"/>
</g>
</svg>
