<?xml version="1.0" encoding="utf-8"?>
<!-- Generator: Adobe Illustrator 23.0.1, SVG Export Plug-In . SVG Version: 6.00 Build 0)  -->
<svg version="1.1" id="Layer_1" xmlns="http://www.w3.org/2000/svg" xmlns:xlink="http://www.w3.org/1999/xlink" x="0px" y="0px"
	 viewBox="0 0 512 304" style="enable-background:new 0 0 512 304;" xml:space="preserve">
<style type="text/css">
	.st0{fill:#F6F6F8;}
</style>
<g>
	<path class="st0" d="M28.3,82.9v-8.5H6v69.8h22.3V99.6c2.9-3.9,10.6-6.3,16.4-6.3c2.3,0,4.2,0.1,5.5,0.6V72.5
		C42,72.5,33,77.3,28.3,82.9z"/>
	<path class="st0" d="M90,72.9c-21.8,0-36.9,16.3-36.9,36.5C53.1,132,69.5,146,91,146c10.7,0,22.2-3,29.1-9.2l-9.7-14.6
		c-4,3.8-12.1,5.9-17,5.9c-10.1,0-15.9-5.2-17.5-11.4h49.6v-5C125.6,88,110.6,72.9,90,72.9z M76,101.9c0.9-5,4.6-10.8,14.3-10.8
		c10.2,0,13.8,5.9,14.4,10.8H76z"/>
	<path class="st0" d="M154.6,100.5c-10.7,0-24.1,5.6-24.1,22.5c0,15.6,13.3,22.9,24.1,22.9c9,0,17.4-3.5,21.8-8.7v6.9h22.3v-43.6
		c0-21.6-15.8-27.8-32.6-27.8c-10.7,0-22.8,3.2-31.8,10.8l8.3,15.4c5.7-4.8,12.6-7.5,19.6-7.5c9,0,14.2,4.2,14.2,10.2v6.9
		C172.2,103.5,163.9,100.5,154.6,100.5z M176.4,126.5c-2.3,3.3-7.5,5-12.4,5c-5.8,0-11.1-2.6-11.1-8.1c0-5.5,5.3-8.1,11.1-8.1
		c4.9,0,10.1,1.6,12.4,4.9V126.5z"/>
	<rect x="212.2" y="47.9" class="st0" width="22.3" height="96.4"/>
	<path class="st0" d="M94.9,227.3c0,7.5-3.3,11-8.6,11c-4.2,0-6.2-0.9-9-3.2l-5.7,16.2c5.4,3.5,8.9,4.9,18.4,4.9
		c18.7,0,27.1-12,27.1-28.9v-69.1H94.9V227.3z"/>
	<path class="st0" d="M177.8,203.2c-2.6,3.3-6.9,6.8-13.2,6.8c-7.2,0-11.5-2.9-11.5-11.4v-40.4h-21.9v49.6
		c0,12.7,7.1,21.8,22.7,21.8c11.7,0,19.6-5.2,23.8-10.1v8.1h22.3v-69.8h-22.3V203.2z"/>
	<path class="st0" d="M232.9,178.4c0-2.7,3.5-4.8,8.7-4.8c8.4,0,16.3,3.6,20.5,7.6l8.5-15.7c-7.5-5.5-17.3-9.2-29.1-9.2
		c-19.2,0-29.9,10.7-29.9,22.9c0,28.3,40.5,19.3,40.5,28c0,3-2.7,4.9-9.4,4.9c-8.2,0-19.3-4.8-24.5-9.4l-9.2,15.9
		c7.4,6.6,20.2,10.8,32.7,10.8c19.9,0,31.6-9.5,31.6-22.8C273.3,178.1,232.9,186,232.9,178.4z"/>
	<path class="st0" d="M315.5,209.9c-3.7,0-6-3-6-7.1v-25.5h14v-19.1h-14v-19.1h-22.3v19.1H276v19.1h11.6V209
		c0,13.4,7.5,20.5,21.5,20.5c8.1,0,13.5-2,16.2-4.6l-4.3-16.7C320.3,209,317.9,209.9,315.5,209.9z"/>
	<rect x="333.7" y="157.7" class="st0" width="22.3" height="69.8"/>
	<path class="st0" d="M404.3,175.9c5.9,0,10.4,2.6,13.1,6.6l14.4-13.4c-4.2-6.2-13.4-12.8-28.6-12.8c-21.8,0-37.9,14.7-37.9,36.5
		s16.2,36.6,37.9,36.6c15.1,0,24.4-6.8,28.6-12.8L417.5,203c-2.7,3.9-7.2,6.8-13.1,6.8c-9.2,0-16.3-6.5-16.3-17
		S395.1,175.9,404.3,175.9z"/>
	<path class="st0" d="M506,195c0-23.7-15-38.8-35.6-38.8c-21.8,0-36.9,16.3-36.9,36.5c0,22.6,16.4,36.6,37.9,36.6
		c10.7,0,22.2-3,29.1-9.2l-9.7-14.6c-4,3.8-12.1,5.9-17,5.9c-10.1,0-15.9-5.2-17.5-11.4H506V195z M456.1,185.2
		c0.9-5,4.6-10.8,14.3-10.8c10.2,0,13.8,5.9,14.4,10.8H456.1z"/>
	<path class="st0" d="M358.8,121.5L358.8,121.5c-0.2,0-0.4,0.1-0.6,0.2c-2.9-4.2-7.7-6.9-13.1-6.9c-5.4,0-10.2,2.7-13,6.9
		c-0.2-0.1-0.4-0.2-0.6-0.2c0,0,0,0,0,0c-0.4,0-0.8,0.2-1,0.6c-1.5,2.5-2.2,5.5-2.2,8.4c0,9.3,7.5,17,16.8,17
		c9.3,0,16.9-7.6,16.9-17c0-3-0.8-5.9-2.3-8.4C359.5,121.7,359.1,121.5,358.8,121.5z M345.1,145.2c-8,0-14.5-6.6-14.5-14.7
		c0-1.9,0.4-3.8,1.1-5.6c3.1,4.2,8.1,6.8,13.4,6.8c5.3,0,10.4-2.6,13.6-6.8c0.8,1.8,1.2,3.7,1.2,5.6
		C359.8,138.6,353.2,145.2,345.1,145.2z"/>
	<path class="st0" d="M330.7,117.4c0.2,0.3,0.5,0.5,0.9,0.5c0.3,0,0.6-0.1,0.8-0.4c0.1-0.1,0.1-0.1,0.1-0.2c1.2-1.6,2.8-3,4.5-4.1
		c2.4-1.4,5.1-2.1,7.9-2.1c5,0,9.7,2.4,12.7,6.3c0,0.1,0.1,0.1,0.1,0.2c0.2,0.2,0.5,0.3,0.8,0.3c0.4,0,0.7-0.2,0.9-0.4
		c0.1-0.1,0.2-0.3,0.2-0.4c0.8-1.9,1.2-4,1.2-6.1c0-4.2-1.7-8.2-4.7-11.1c-3-3-7-4.6-11.2-4.6c-4.2,0-8.2,1.6-11.1,4.6
		c-3,3-4.6,6.9-4.6,11.1c0,2.1,0.4,4.2,1.2,6.1C330.6,117.1,330.6,117.3,330.7,117.4z"/>
</g>
</svg>
